<?xml version="1.0" encoding="utf-8"?>
<!DOCTYPE svg PUBLIC "-//W3C//DTD SVG 1.1//EN" "http://www.w3.org/Graphics/SVG/1.1/DTD/svg11.dtd">
<svg version="1.1" xmlns="http://www.w3.org/2000/svg" xmlns:xlink="http://www.w3.org/1999/xlink" width="48" height="36" viewBox="0 0 48 36">
<g>
	<polygon fill="#067CB6" points="47.123,28.146 47.093,28.517 46.999,28.881 46.857,29.235 46.655,29.589 46.389,29.934 
		46.073,30.279 45.697,30.615 45.279,30.942 44.811,31.259 44.292,31.569 43.722,31.869 43.109,32.158 42.457,32.439 41.764,32.712 
		41.021,32.966 40.247,33.22 39.432,33.457 38.577,33.684 37.689,33.893 36.774,34.092 35.815,34.283 34.827,34.456 33.82,34.609 
		32.781,34.755 31.711,34.881 30.621,35 29.501,35.1 28.37,35.172 27.208,35.236 26.038,35.282 24.844,35.309 23.634,35.317 
		22.431,35.309 21.239,35.282 20.068,35.236 18.906,35.172 17.776,35.1 16.656,35 15.565,34.881 14.495,34.755 13.457,34.609 
		12.448,34.456 11.461,34.283 10.503,34.092 9.586,33.893 8.699,33.684 7.844,33.457 7.029,33.22 6.255,32.966 5.511,32.712 
		4.819,32.439 4.156,32.158 3.545,31.869 2.985,31.569 2.465,31.259 1.997,30.942 1.569,30.615 1.203,30.279 0.886,29.934 
		0.621,29.589 0.418,29.235 0.275,28.881 0.183,28.517 0.153,28.146 0.183,27.773 0.275,27.409 0.418,27.056 0.621,26.703 
		0.886,26.357 1.203,26.013 1.569,25.676 1.997,25.358 2.465,25.04 2.985,24.732 3.545,24.423 4.156,24.132 4.819,23.851 
		5.511,23.587 6.255,23.325 7.029,23.079 7.844,22.834 8.699,22.607 9.586,22.399 10.503,22.198 11.461,22.017 12.448,21.835 
		13.457,21.681 14.495,21.536 15.565,21.409 16.656,21.292 17.776,21.2 18.906,21.118 20.068,21.054 21.239,21.009 22.431,20.983 
		23.634,20.973 24.844,20.983 26.038,21.009 27.208,21.054 28.37,21.118 29.501,21.2 30.621,21.292 31.711,21.409 32.781,21.536 
		33.82,21.681 34.827,21.835 35.815,22.017 36.774,22.198 37.689,22.399 38.577,22.607 39.432,22.834 40.247,23.079 41.021,23.325 
		41.764,23.587 42.457,23.851 43.109,24.132 43.722,24.423 44.292,24.732 44.811,25.04 45.279,25.358 45.697,25.676 46.073,26.013 
		46.389,26.357 46.655,26.703 46.857,27.056 46.999,27.409 47.093,27.773 	"/>
	<polygon fill="#8FCBEF" points="23.634,35.445 23.634,35.445 24.245,35.445 24.844,35.435 25.445,35.427 26.047,35.409 
		26.638,35.39 27.218,35.363 27.799,35.336 28.379,35.299 28.949,35.263 29.52,35.219 30.08,35.172 30.632,35.128 31.18,35.073 
		31.732,35.019 32.271,34.955 32.801,34.881 33.321,34.81 33.841,34.737 34.35,34.665 34.859,34.583 35.358,34.5 35.847,34.41 
		36.324,34.319 36.804,34.219 37.261,34.119 37.721,34.021 38.179,33.911 38.616,33.801 38.83,33.748 39.044,33.693 39.259,33.639 
		39.472,33.576 39.676,33.52 39.88,33.457 40.085,33.402 40.289,33.339 40.49,33.276 40.685,33.22 40.878,33.158 41.073,33.094 
		41.264,33.021 41.449,32.957 41.632,32.895 41.816,32.831 42,32.757 42.173,32.694 42.345,32.622 42.52,32.557 42.681,32.484 
		42.854,32.412 43.019,32.34 43.181,32.267 43.333,32.195 43.495,32.123 43.651,32.05 43.793,31.978 43.945,31.904 44.088,31.822 
		44.23,31.75 44.364,31.677 44.506,31.595 44.636,31.514 44.769,31.441 44.893,31.359 45.014,31.277 45.136,31.205 45.258,31.123 
		45.371,31.042 45.482,30.96 45.585,30.878 45.697,30.788 45.799,30.705 45.9,30.624 45.992,30.533 46.084,30.451 46.176,30.37 
		46.267,30.279 46.347,30.189 46.429,30.106 46.5,30.016 46.572,29.925 46.643,29.833 46.704,29.752 46.767,29.661 46.827,29.561 
		46.888,29.48 46.941,29.38 46.99,29.29 47.031,29.198 47.071,29.108 47.113,29.008 47.142,28.917 47.174,28.827 47.194,28.726 
		47.226,28.626 47.235,28.536 47.255,28.436 47.266,28.344 47.266,28.245 47.266,28.146 46.981,28.146 46.981,28.235 46.97,28.326 
		46.97,28.409 46.95,28.5 46.941,28.58 46.918,28.672 46.898,28.763 46.869,28.844 46.838,28.926 46.807,29.017 46.767,29.099 
		46.726,29.189 46.675,29.271 46.633,29.362 46.583,29.444 46.523,29.525 46.471,29.607 46.399,29.698 46.339,29.779 46.267,29.861 
		46.195,29.943 46.124,30.025 46.043,30.116 45.962,30.197 45.881,30.279 45.787,30.361 45.697,30.443 45.605,30.515 45.502,30.596 
		45.401,30.678 45.3,30.762 45.187,30.842 45.075,30.923 44.964,30.996 44.85,31.079 44.729,31.15 44.608,31.232 44.474,31.305 
		44.341,31.377 44.209,31.459 44.078,31.532 43.945,31.605 43.802,31.686 43.659,31.76 43.507,31.822 43.353,31.904 43.2,31.967 
		43.048,32.04 42.885,32.113 42.734,32.186 42.559,32.258 42.396,32.322 42.234,32.395 42.06,32.458 41.888,32.531 41.702,32.594 
		41.52,32.658 41.346,32.722 41.154,32.785 40.969,32.848 40.788,32.913 40.593,32.976 40.4,33.039 40.196,33.103 39.993,33.158 
		39.8,33.22 39.595,33.276 39.381,33.339 39.177,33.393 38.963,33.448 38.749,33.501 38.535,33.556 38.098,33.665 37.659,33.774 
		37.202,33.874 36.732,33.974 36.264,34.065 35.785,34.156 35.296,34.246 34.808,34.328 34.308,34.41 33.789,34.483 33.28,34.564 
		32.76,34.627 32.231,34.701 31.692,34.755 31.15,34.818 30.61,34.873 30.051,34.918 29.49,34.964 28.929,35.009 28.359,35.046 
		27.788,35.082 27.208,35.109 26.618,35.136 26.038,35.155 25.436,35.172 24.844,35.182 24.245,35.19 23.634,35.19 23.634,35.19 
		23.634,35.19 23.622,35.19 23.602,35.2 23.593,35.2 23.571,35.2 23.562,35.209 23.551,35.219 23.541,35.227 23.531,35.236 
		23.51,35.254 23.5,35.272 23.5,35.299 23.5,35.317 23.5,35.346 23.5,35.363 23.51,35.39 23.531,35.409 23.541,35.417 
		23.551,35.427 23.562,35.435 23.571,35.435 23.593,35.445 23.602,35.445 23.622,35.445 	"/>
	<polygon fill="#8FCBEF" points="0,28.146 0,28.146 0.01,28.245 0.01,28.344 0.02,28.436 0.041,28.536 0.051,28.626 0.072,28.726 
		0.102,28.827 0.132,28.917 0.163,29.008 0.204,29.108 0.245,29.198 0.285,29.29 0.336,29.38 0.387,29.48 0.448,29.561 
		0.499,29.661 0.571,29.752 0.632,29.833 0.704,29.925 0.774,30.016 0.846,30.106 0.927,30.189 1.009,30.279 1.1,30.37 
		1.192,30.451 1.284,30.533 1.376,30.624 1.478,30.705 1.578,30.788 1.68,30.878 1.792,30.96 1.906,31.042 2.017,31.123 
		2.14,31.205 2.262,31.277 2.384,31.359 2.506,31.441 2.638,31.514 2.771,31.595 2.913,31.677 3.046,31.75 3.189,31.822 
		3.331,31.904 3.484,31.978 3.627,32.05 3.78,32.123 3.942,32.195 4.095,32.267 4.259,32.34 4.422,32.412 4.595,32.484 
		4.758,32.557 4.93,32.622 5.103,32.694 5.277,32.757 5.46,32.831 5.643,32.895 5.826,32.957 6.01,33.021 6.204,33.094 
		6.398,33.158 6.591,33.22 6.785,33.276 6.989,33.339 7.182,33.402 7.386,33.457 7.6,33.52 7.802,33.576 8.016,33.639 8.23,33.693 
		8.444,33.748 8.658,33.801 9.097,33.911 9.555,34.021 10.014,34.119 10.472,34.219 10.95,34.319 11.429,34.41 11.918,34.5 
		12.418,34.583 12.927,34.665 13.437,34.737 13.956,34.81 14.475,34.881 15.005,34.955 15.545,35.019 16.095,35.073 16.635,35.128 
		17.195,35.172 17.756,35.219 18.325,35.263 18.896,35.299 19.477,35.336 20.058,35.363 20.638,35.39 21.229,35.409 21.83,35.427 
		22.431,35.435 23.032,35.445 23.634,35.445 23.634,35.19 23.032,35.19 22.431,35.182 21.84,35.172 21.239,35.155 20.659,35.136 
		20.068,35.109 19.488,35.082 18.916,35.046 18.346,35.009 17.785,34.964 17.226,34.918 16.666,34.873 16.126,34.818 15.585,34.755 
		15.046,34.701 14.515,34.627 13.996,34.564 13.477,34.483 12.968,34.41 12.468,34.328 11.979,34.246 11.491,34.156 11.012,34.065 
		10.544,33.974 10.075,33.874 9.617,33.774 9.177,33.665 8.74,33.556 8.527,33.501 8.313,33.448 8.099,33.393 7.885,33.339 
		7.68,33.276 7.477,33.22 7.273,33.158 7.08,33.103 6.876,33.039 6.683,32.976 6.489,32.913 6.305,32.848 6.113,32.785 
		5.928,32.722 5.745,32.658 5.572,32.594 5.388,32.531 5.216,32.458 5.042,32.395 4.88,32.322 4.706,32.258 4.544,32.186 
		4.391,32.113 4.227,32.04 4.075,31.967 3.923,31.904 3.769,31.822 3.616,31.76 3.474,31.686 3.331,31.605 3.198,31.532 
		3.056,31.459 2.934,31.377 2.802,31.305 2.669,31.232 2.548,31.15 2.424,31.079 2.312,30.996 2.2,30.923 2.088,30.842 
		1.977,30.762 1.875,30.678 1.772,30.596 1.671,30.515 1.578,30.443 1.487,30.361 1.396,30.279 1.315,30.197 1.233,30.116 
		1.151,30.025 1.07,29.943 0.999,29.861 0.937,29.779 0.865,29.698 0.805,29.607 0.754,29.525 0.693,29.444 0.642,29.362 
		0.591,29.271 0.55,29.189 0.51,29.099 0.469,29.017 0.438,28.926 0.407,28.844 0.377,28.763 0.357,28.672 0.336,28.58 0.316,28.5 
		0.305,28.409 0.296,28.326 0.296,28.235 0.296,28.146 0.296,28.146 0.296,28.146 0.296,28.127 0.285,28.119 0.285,28.1 
		0.275,28.091 0.275,28.082 0.265,28.063 0.255,28.063 0.245,28.055 0.224,28.037 0.204,28.027 0.174,28.018 0.153,28.018 
		0.122,28.018 0.092,28.027 0.072,28.037 0.051,28.055 0.041,28.063 0.031,28.063 0.02,28.082 0.02,28.091 0.01,28.1 0.01,28.119 
		0,28.127 	"/>
	<polygon fill="#8FCBEF" points="23.634,20.845 23.634,20.845 23.032,20.845 22.431,20.855 21.83,20.863 21.229,20.883 20.638,20.9 
		20.058,20.927 19.477,20.956 18.896,20.991 18.325,21.028 17.756,21.073 17.195,21.118 16.635,21.173 16.095,21.228 15.545,21.281 
		15.005,21.346 14.475,21.409 13.956,21.482 13.437,21.554 12.927,21.636 12.418,21.717 11.918,21.799 11.429,21.89 10.95,21.98 
		10.472,22.072 10.014,22.171 9.555,22.271 9.097,22.379 8.658,22.489 8.23,22.598 7.802,22.716 7.6,22.771 7.386,22.834 
		7.182,22.897 6.989,22.952 6.785,23.016 6.591,23.079 6.398,23.142 6.204,23.207 6.01,23.269 5.826,23.333 5.643,23.397 
		5.46,23.47 5.277,23.534 5.103,23.597 4.93,23.669 4.758,23.742 4.595,23.806 4.422,23.878 4.259,23.951 4.095,24.024 
		3.942,24.096 3.78,24.169 3.627,24.242 3.484,24.314 3.331,24.396 3.189,24.468 3.046,24.542 2.913,24.623 2.771,24.695 
		2.638,24.777 2.506,24.85 2.384,24.931 2.262,25.013 2.14,25.096 2.017,25.177 1.906,25.258 1.792,25.34 1.68,25.421 1.578,25.503 
		1.478,25.585 1.376,25.676 1.284,25.758 1.192,25.839 1.1,25.93 1.009,26.013 0.927,26.103 0.846,26.193 0.774,26.274 
		0.704,26.366 0.632,26.457 0.571,26.547 0.499,26.639 0.448,26.729 0.387,26.82 0.336,26.91 0.285,27.001 0.245,27.092 
		0.204,27.192 0.163,27.283 0.132,27.382 0.102,27.473 0.072,27.565 0.051,27.664 0.041,27.756 0.02,27.854 0.01,27.955 
		0.01,28.044 0,28.146 0.296,28.146 0.296,28.063 0.296,27.973 0.305,27.883 0.316,27.791 0.336,27.709 0.357,27.619 0.377,27.537 
		0.407,27.446 0.438,27.365 0.469,27.283 0.51,27.192 0.55,27.111 0.591,27.02 0.642,26.938 0.693,26.847 0.754,26.765 
		0.805,26.684 0.865,26.602 0.937,26.521 0.999,26.429 1.07,26.348 1.151,26.267 1.233,26.184 1.315,26.103 1.396,26.021 
		1.487,25.939 1.578,25.858 1.671,25.775 1.772,25.694 1.875,25.612 1.977,25.53 2.088,25.458 2.2,25.376 2.312,25.294 
		2.424,25.222 2.548,25.14 2.669,25.067 2.802,24.986 2.934,24.913 3.056,24.832 3.198,24.758 3.331,24.687 3.474,24.613 
		3.616,24.542 3.769,24.468 3.923,24.396 4.075,24.323 4.227,24.25 4.391,24.179 4.544,24.114 4.706,24.041 4.88,23.969 
		5.042,23.906 5.216,23.833 5.388,23.77 5.572,23.697 5.745,23.642 5.928,23.57 6.113,23.506 6.305,23.442 6.489,23.379 
		6.683,23.316 6.876,23.251 7.08,23.197 7.273,23.134 7.477,23.079 7.68,23.016 7.885,22.961 8.313,22.844 8.74,22.734 
		9.177,22.625 9.617,22.525 10.075,22.426 10.544,22.326 11.012,22.226 11.491,22.135 11.979,22.052 12.468,21.963 12.968,21.881 
		13.477,21.809 13.996,21.735 14.515,21.663 15.046,21.599 15.585,21.536 16.126,21.482 16.666,21.417 17.226,21.372 17.785,21.327 
		18.346,21.281 18.916,21.244 19.488,21.208 20.068,21.182 20.659,21.155 21.239,21.136 21.84,21.118 22.431,21.11 23.032,21.101 
		23.634,21.101 23.634,21.101 23.634,21.101 23.652,21.101 23.673,21.101 23.684,21.091 23.705,21.091 23.714,21.083 23.724,21.073 
		23.735,21.064 23.745,21.064 23.764,21.046 23.776,21.019 23.776,21 23.785,20.973 23.776,20.946 23.776,20.927 23.764,20.9 
		23.745,20.883 23.735,20.873 23.724,20.863 23.714,20.863 23.705,20.855 23.684,20.855 23.673,20.845 23.652,20.845 	"/>
	<polygon fill="#8FCBEF" points="47.266,28.146 47.266,28.044 47.266,27.955 47.255,27.854 47.235,27.756 47.226,27.664 
		47.194,27.565 47.174,27.473 47.142,27.382 47.113,27.283 47.071,27.192 47.031,27.092 46.99,27.001 46.941,26.91 46.888,26.82 
		46.827,26.729 46.767,26.639 46.704,26.547 46.643,26.457 46.572,26.366 46.5,26.274 46.429,26.193 46.347,26.103 46.267,26.013 
		46.176,25.93 46.084,25.839 45.992,25.758 45.9,25.676 45.799,25.585 45.697,25.503 45.585,25.421 45.482,25.34 45.371,25.258 
		45.258,25.177 45.136,25.096 45.014,25.013 44.893,24.931 44.769,24.85 44.636,24.777 44.506,24.695 44.364,24.623 44.23,24.542 
		44.088,24.468 43.945,24.396 43.793,24.314 43.651,24.242 43.495,24.169 43.333,24.096 43.181,24.024 43.019,23.951 42.854,23.878 
		42.681,23.806 42.52,23.742 42.345,23.669 42.173,23.597 42,23.534 41.816,23.47 41.632,23.397 41.449,23.333 41.264,23.269 
		41.073,23.207 40.878,23.142 40.685,23.079 40.49,23.016 40.289,22.952 40.085,22.897 39.88,22.834 39.676,22.771 39.472,22.716 
		39.044,22.598 38.616,22.489 38.179,22.379 37.721,22.271 37.261,22.171 36.804,22.072 36.324,21.98 35.847,21.89 35.358,21.799 
		34.859,21.717 34.35,21.636 33.841,21.554 33.321,21.482 32.801,21.409 32.271,21.346 31.732,21.281 31.18,21.228 30.632,21.173 
		30.08,21.118 29.52,21.073 28.949,21.028 28.379,20.991 27.799,20.956 27.218,20.927 26.638,20.9 26.047,20.883 25.445,20.863 
		24.844,20.855 24.245,20.845 23.634,20.845 23.634,21.101 24.245,21.101 24.844,21.11 25.436,21.118 26.038,21.136 26.618,21.155 
		27.208,21.182 27.788,21.208 28.359,21.244 28.929,21.281 29.49,21.327 30.051,21.372 30.61,21.417 31.15,21.482 31.692,21.536 
		32.231,21.599 32.76,21.663 33.28,21.735 33.789,21.809 34.308,21.881 34.808,21.963 35.296,22.052 35.785,22.135 36.264,22.226 
		36.732,22.326 37.202,22.426 37.659,22.525 38.098,22.625 38.535,22.734 38.963,22.844 39.381,22.961 39.595,23.016 39.8,23.079 
		39.993,23.134 40.196,23.197 40.4,23.251 40.593,23.316 40.788,23.379 40.969,23.442 41.154,23.506 41.346,23.57 41.531,23.642 
		41.702,23.697 41.888,23.77 42.06,23.833 42.234,23.906 42.396,23.969 42.559,24.041 42.734,24.114 42.885,24.179 43.048,24.25 
		43.2,24.323 43.353,24.396 43.507,24.468 43.659,24.542 43.802,24.613 43.945,24.687 44.078,24.758 44.209,24.832 44.341,24.913 
		44.474,24.986 44.608,25.067 44.729,25.14 44.85,25.222 44.964,25.294 45.075,25.376 45.187,25.458 45.3,25.53 45.401,25.612 
		45.502,25.694 45.605,25.775 45.697,25.858 45.787,25.939 45.881,26.021 45.962,26.103 46.043,26.184 46.124,26.267 46.195,26.348 
		46.267,26.429 46.339,26.521 46.399,26.602 46.471,26.684 46.523,26.765 46.583,26.847 46.633,26.938 46.675,27.02 46.726,27.111 
		46.767,27.192 46.807,27.283 46.838,27.365 46.869,27.446 46.898,27.537 46.918,27.619 46.941,27.709 46.95,27.791 46.97,27.883 
		46.97,27.973 46.981,28.063 46.981,28.146 	"/>
	<polygon fill="#067CB6" points="0.072,13.474 0.072,28.336 47.123,28.336 47.132,13.491 	"/>
	<polygon fill="#1E9AD7" points="47.123,13.028 47.093,13.401 46.999,13.764 46.857,14.118 46.655,14.472 46.389,14.818 
		46.073,15.162 45.697,15.499 45.279,15.824 44.811,16.143 44.292,16.451 43.722,16.751 43.109,17.042 42.457,17.323 41.764,17.596 
		41.021,17.849 40.247,18.104 39.432,18.34 38.577,18.567 37.689,18.775 36.774,18.976 35.815,19.166 34.827,19.339 33.82,19.493 
		32.781,19.639 31.711,19.765 30.621,19.883 29.501,19.975 28.37,20.055 27.208,20.12 26.038,20.165 24.844,20.192 23.634,20.201 
		22.431,20.192 21.239,20.165 20.068,20.12 18.906,20.055 17.776,19.975 16.656,19.883 15.565,19.765 14.495,19.639 13.457,19.493 
		12.448,19.339 11.461,19.166 10.503,18.976 9.586,18.775 8.699,18.567 7.844,18.34 7.029,18.104 6.255,17.849 5.511,17.596 
		4.819,17.323 4.156,17.042 3.545,16.751 2.985,16.451 2.465,16.143 1.997,15.824 1.569,15.499 1.203,15.162 0.886,14.818 
		0.621,14.472 0.418,14.118 0.275,13.764 0.183,13.401 0.153,13.028 0.183,12.656 0.275,12.293 0.418,11.939 0.621,11.585 
		0.886,11.241 1.203,10.895 1.569,10.559 1.997,10.242 2.465,9.915 2.985,9.606 3.545,9.306 4.156,9.015 4.819,8.734 5.511,8.471 
		6.255,8.208 7.029,7.954 7.844,7.718 8.699,7.491 9.586,7.281 10.503,7.082 11.461,6.891 12.448,6.719 13.457,6.564 14.495,6.419 
		15.565,6.292 16.656,6.173 17.776,6.083 18.906,6.001 20.068,5.938 21.239,5.893 22.431,5.866 23.634,5.856 24.844,5.866 
		26.038,5.893 27.208,5.938 28.37,6.001 29.501,6.083 30.621,6.173 31.711,6.292 32.781,6.419 33.82,6.564 34.827,6.719 
		35.815,6.891 36.774,7.082 37.689,7.281 38.577,7.491 39.432,7.718 40.247,7.954 41.021,8.208 41.764,8.471 42.457,8.734 
		43.109,9.015 43.722,9.306 44.292,9.606 44.811,9.915 45.279,10.242 45.697,10.559 46.073,10.895 46.389,11.241 46.655,11.585 
		46.857,11.939 46.999,12.293 47.093,12.656 	"/>
	<polygon fill="#8FCBEF" points="23.634,20.329 23.634,20.329 24.245,20.329 24.844,20.319 25.445,20.31 26.047,20.292 
		26.638,20.274 27.218,20.246 27.799,20.22 28.379,20.183 28.949,20.147 29.52,20.102 30.08,20.055 30.632,20.01 31.18,19.956 
		31.732,19.893 32.271,19.829 32.801,19.765 33.321,19.692 33.841,19.62 34.35,19.547 34.859,19.466 35.358,19.384 35.847,19.293 
		36.324,19.194 36.804,19.103 37.261,19.003 37.721,18.903 38.179,18.793 38.616,18.685 38.83,18.631 39.044,18.576 39.259,18.521 
		39.472,18.458 39.676,18.403 39.88,18.34 40.085,18.286 40.289,18.221 40.49,18.159 40.685,18.104 40.878,18.041 41.073,17.978 
		41.264,17.904 41.449,17.841 41.632,17.777 41.816,17.714 42,17.64 42.173,17.577 42.345,17.505 42.52,17.441 42.681,17.368 
		42.854,17.296 43.019,17.224 43.181,17.15 43.333,17.079 43.495,17.005 43.651,16.933 43.793,16.859 43.945,16.787 44.088,16.705 
		44.23,16.634 44.364,16.561 44.506,16.479 44.636,16.398 44.769,16.325 44.893,16.243 45.014,16.161 45.136,16.088 45.258,16.007 
		45.371,15.925 45.482,15.843 45.585,15.761 45.697,15.671 45.799,15.588 45.9,15.508 45.992,15.416 46.084,15.335 46.176,15.244 
		46.267,15.162 46.347,15.072 46.429,14.99 46.5,14.899 46.572,14.808 46.643,14.716 46.704,14.627 46.767,14.544 46.827,14.445 
		46.888,14.363 46.941,14.263 46.99,14.172 47.031,14.081 47.071,13.991 47.113,13.891 47.142,13.799 47.174,13.701 47.194,13.609 
		47.226,13.509 47.235,13.419 47.255,13.318 47.266,13.229 47.266,13.129 47.266,13.028 46.981,13.028 46.981,13.12 46.97,13.21 
		46.97,13.292 46.95,13.383 46.941,13.464 46.918,13.555 46.898,13.637 46.869,13.728 46.838,13.809 46.807,13.9 46.767,13.982 
		46.726,14.073 46.675,14.155 46.633,14.236 46.583,14.327 46.523,14.408 46.471,14.49 46.399,14.582 46.339,14.663 46.267,14.745 
		46.195,14.827 46.124,14.908 46.043,14.999 45.962,15.081 45.881,15.162 45.787,15.244 45.697,15.327 45.605,15.398 45.502,15.481 
		45.401,15.562 45.3,15.644 45.187,15.716 45.075,15.798 44.964,15.879 44.85,15.96 44.729,16.033 44.608,16.116 44.474,16.188 
		44.341,16.261 44.209,16.342 44.078,16.416 43.945,16.487 43.802,16.561 43.659,16.642 43.507,16.705 43.353,16.787 43.2,16.85 
		43.048,16.923 42.885,16.996 42.734,17.068 42.559,17.142 42.396,17.206 42.234,17.278 42.06,17.34 41.888,17.405 41.702,17.477 
		41.52,17.541 41.346,17.604 41.154,17.668 40.969,17.731 40.788,17.795 40.593,17.859 40.4,17.922 40.196,17.985 39.993,18.041 
		39.8,18.104 39.595,18.159 39.381,18.212 39.177,18.277 38.963,18.331 38.749,18.386 38.535,18.44 38.098,18.549 37.659,18.657 
		37.202,18.758 36.732,18.858 36.264,18.948 35.785,19.039 35.296,19.129 34.808,19.212 34.308,19.293 33.789,19.366 33.28,19.438 
		32.76,19.511 32.231,19.583 31.692,19.639 31.15,19.702 30.61,19.755 30.051,19.801 29.49,19.848 28.929,19.893 28.359,19.929 
		27.788,19.966 27.208,19.992 26.618,20.02 26.038,20.038 25.436,20.055 24.844,20.065 24.245,20.074 23.634,20.074 23.634,20.074 
		23.634,20.329 	"/>
	<polygon fill="#8FCBEF" points="0,13.028 0,13.028 0.01,13.129 0.01,13.229 0.02,13.318 0.041,13.419 0.051,13.509 0.072,13.609 
		0.102,13.701 0.132,13.799 0.163,13.891 0.204,13.991 0.245,14.081 0.285,14.172 0.336,14.263 0.387,14.363 0.448,14.445 
		0.499,14.544 0.571,14.627 0.632,14.716 0.704,14.808 0.774,14.899 0.846,14.99 0.927,15.072 1.009,15.162 1.1,15.244 
		1.192,15.335 1.284,15.416 1.376,15.508 1.478,15.588 1.578,15.671 1.68,15.761 1.792,15.843 1.906,15.925 2.017,16.007 
		2.14,16.088 2.262,16.161 2.384,16.243 2.506,16.325 2.638,16.398 2.771,16.479 2.913,16.561 3.046,16.634 3.189,16.705 
		3.331,16.787 3.484,16.859 3.627,16.933 3.78,17.005 3.942,17.079 4.095,17.15 4.259,17.224 4.422,17.296 4.595,17.368 
		4.758,17.441 4.93,17.505 5.103,17.577 5.277,17.64 5.46,17.714 5.643,17.777 5.826,17.841 6.01,17.904 6.204,17.978 6.398,18.041 
		6.591,18.104 6.785,18.159 6.989,18.221 7.182,18.286 7.386,18.34 7.6,18.403 7.802,18.458 8.016,18.521 8.23,18.576 8.444,18.631 
		8.658,18.685 9.097,18.793 9.555,18.903 10.014,19.003 10.472,19.103 10.95,19.194 11.429,19.293 11.918,19.384 12.418,19.466 
		12.927,19.547 13.437,19.62 13.956,19.692 14.475,19.765 15.005,19.829 15.545,19.893 16.095,19.956 16.635,20.01 17.195,20.055 
		17.756,20.102 18.325,20.147 18.896,20.183 19.477,20.22 20.058,20.246 20.638,20.274 21.229,20.292 21.83,20.31 22.431,20.319 
		23.032,20.329 23.634,20.329 23.634,20.074 23.032,20.074 22.431,20.065 21.84,20.055 21.239,20.038 20.659,20.02 20.068,19.992 
		19.488,19.966 18.916,19.929 18.346,19.893 17.785,19.848 17.226,19.801 16.666,19.755 16.126,19.702 15.585,19.639 15.046,19.583 
		14.515,19.511 13.996,19.438 13.477,19.366 12.968,19.293 12.468,19.212 11.979,19.129 11.491,19.039 11.012,18.948 10.544,18.858 
		10.075,18.758 9.617,18.657 9.177,18.549 8.74,18.44 8.527,18.386 8.313,18.331 8.099,18.277 7.885,18.212 7.68,18.159 
		7.477,18.104 7.273,18.041 7.08,17.985 6.876,17.922 6.683,17.859 6.489,17.795 6.305,17.731 6.113,17.668 5.928,17.604 
		5.745,17.541 5.572,17.477 5.388,17.405 5.216,17.34 5.042,17.278 4.88,17.206 4.706,17.142 4.544,17.068 4.391,16.996 
		4.227,16.923 4.075,16.85 3.923,16.787 3.769,16.705 3.616,16.642 3.474,16.561 3.331,16.487 3.198,16.416 3.056,16.342 
		2.934,16.261 2.802,16.188 2.669,16.116 2.548,16.033 2.424,15.96 2.312,15.879 2.2,15.798 2.088,15.716 1.977,15.644 
		1.875,15.562 1.772,15.481 1.671,15.398 1.578,15.327 1.487,15.244 1.396,15.162 1.315,15.081 1.233,14.999 1.151,14.908 
		1.07,14.827 0.999,14.745 0.937,14.663 0.865,14.582 0.805,14.49 0.754,14.408 0.693,14.327 0.642,14.236 0.591,14.155 
		0.55,14.073 0.51,13.982 0.469,13.9 0.438,13.809 0.407,13.728 0.377,13.637 0.357,13.555 0.336,13.464 0.316,13.383 0.305,13.292 
		0.296,13.21 0.296,13.12 0.296,13.028 0.296,13.028 0,13.028 	"/>
	<polygon fill="#8FCBEF" points="23.634,5.729 23.634,5.729 23.032,5.729 22.431,5.739 21.83,5.747 21.229,5.765 20.638,5.784 
		20.058,5.81 19.477,5.838 18.896,5.875 18.325,5.912 17.756,5.956 17.195,6.001 16.635,6.047 16.095,6.102 15.545,6.166 
		15.005,6.228 14.475,6.292 13.956,6.365 13.437,6.437 12.927,6.519 12.418,6.592 11.918,6.682 11.429,6.773 10.95,6.865 
		10.472,6.955 10.014,7.054 9.555,7.154 9.097,7.263 8.658,7.373 8.23,7.481 7.802,7.599 7.6,7.654 7.386,7.718 7.182,7.781 
		6.989,7.835 6.785,7.899 6.591,7.962 6.398,8.026 6.204,8.089 6.01,8.153 5.826,8.217 5.643,8.28 5.46,8.353 5.277,8.417 
		5.103,8.48 4.93,8.553 4.758,8.625 4.595,8.689 4.422,8.762 4.259,8.834 4.095,8.906 3.942,8.98 3.78,9.052 3.627,9.125 
		3.484,9.197 3.331,9.28 3.189,9.351 3.046,9.424 2.913,9.505 2.771,9.579 2.638,9.661 2.506,9.732 2.384,9.815 2.262,9.896 
		2.14,9.978 2.017,10.06 1.906,10.141 1.792,10.223 1.68,10.306 1.578,10.387 1.478,10.469 1.376,10.559 1.284,10.641 1.192,10.722 
		1.1,10.814 1.009,10.895 0.927,10.986 0.846,11.068 0.774,11.159 0.704,11.249 0.632,11.339 0.571,11.431 0.499,11.521 
		0.448,11.613 0.387,11.704 0.336,11.794 0.285,11.885 0.245,11.975 0.204,12.076 0.163,12.166 0.132,12.257 0.102,12.357 
		0.072,12.447 0.051,12.547 0.041,12.638 0.02,12.738 0.01,12.838 0.01,12.929 0,13.028 0.296,13.028 0.296,12.938 0.296,12.857 
		0.305,12.766 0.316,12.674 0.336,12.592 0.357,12.502 0.377,12.42 0.407,12.33 0.438,12.248 0.469,12.157 0.51,12.076 0.55,11.993 
		0.591,11.903 0.642,11.821 0.693,11.731 0.754,11.648 0.805,11.567 0.865,11.485 0.937,11.395 0.999,11.313 1.07,11.23 
		1.151,11.149 1.233,11.068 1.315,10.986 1.396,10.903 1.487,10.822 1.578,10.741 1.671,10.659 1.772,10.577 1.875,10.496 
		1.977,10.414 2.088,10.341 2.2,10.26 2.312,10.178 2.424,10.105 2.548,10.024 2.669,9.95 2.802,9.87 2.934,9.796 3.056,9.714 
		3.198,9.643 3.331,9.57 3.474,9.497 3.616,9.424 3.769,9.351 3.923,9.28 4.075,9.206 4.227,9.134 4.391,9.062 4.544,8.988 
		4.706,8.924 4.88,8.852 5.042,8.789 5.216,8.716 5.388,8.652 5.572,8.58 5.745,8.517 5.928,8.452 6.113,8.389 6.305,8.326 
		6.489,8.262 6.683,8.198 6.876,8.135 7.08,8.081 7.273,8.017 7.477,7.962 7.68,7.899 7.885,7.845 8.313,7.726 8.74,7.618 
		9.177,7.509 9.617,7.409 10.075,7.309 10.544,7.209 11.012,7.109 11.491,7.019 11.979,6.937 12.468,6.847 12.968,6.765 
		13.477,6.691 13.996,6.618 14.515,6.547 15.046,6.483 15.585,6.419 16.126,6.356 16.666,6.301 17.226,6.256 17.785,6.21 
		18.346,6.166 18.916,6.128 19.488,6.092 20.068,6.065 20.659,6.037 21.239,6.019 21.84,6.001 22.431,5.992 23.032,5.983 
		23.634,5.983 23.634,5.983 23.634,5.729 	"/>
	<polygon fill="#8FCBEF" points="47.266,13.028 47.266,13.028 47.266,12.929 47.266,12.838 47.255,12.738 47.235,12.638 
		47.226,12.547 47.194,12.447 47.174,12.357 47.142,12.257 47.113,12.166 47.071,12.076 47.031,11.975 46.99,11.885 46.941,11.794 
		46.888,11.704 46.827,11.613 46.767,11.521 46.704,11.431 46.643,11.339 46.572,11.249 46.5,11.159 46.429,11.068 46.347,10.986 
		46.267,10.895 46.176,10.814 46.084,10.722 45.992,10.641 45.9,10.559 45.799,10.469 45.697,10.387 45.585,10.306 45.482,10.223 
		45.371,10.141 45.258,10.06 45.136,9.978 45.014,9.896 44.893,9.815 44.769,9.732 44.636,9.661 44.506,9.579 44.364,9.505 
		44.23,9.424 44.088,9.351 43.945,9.28 43.793,9.197 43.651,9.125 43.495,9.052 43.333,8.98 43.181,8.906 43.019,8.834 
		42.854,8.762 42.681,8.689 42.52,8.625 42.345,8.553 42.173,8.48 42,8.417 41.816,8.353 41.632,8.28 41.449,8.217 41.264,8.153 
		41.073,8.089 40.878,8.026 40.685,7.962 40.49,7.899 40.289,7.835 40.085,7.781 39.88,7.718 39.676,7.654 39.472,7.599 
		39.044,7.481 38.616,7.373 38.179,7.263 37.721,7.154 37.261,7.054 36.804,6.955 36.324,6.865 35.847,6.773 35.358,6.682 
		34.859,6.592 34.35,6.519 33.841,6.437 33.321,6.365 32.801,6.292 32.271,6.228 31.732,6.166 31.18,6.102 30.632,6.047 
		30.08,6.001 29.52,5.956 28.949,5.912 28.379,5.875 27.799,5.838 27.218,5.81 26.638,5.784 26.047,5.765 25.445,5.747 
		24.844,5.739 24.245,5.729 23.634,5.729 23.634,5.983 24.245,5.983 24.844,5.992 25.436,6.001 26.038,6.019 26.618,6.037 
		27.208,6.065 27.788,6.092 28.359,6.128 28.929,6.166 29.49,6.21 30.051,6.256 30.61,6.301 31.15,6.356 31.692,6.419 32.231,6.483 
		32.76,6.547 33.28,6.618 33.789,6.691 34.308,6.765 34.808,6.847 35.296,6.937 35.785,7.019 36.264,7.109 36.732,7.209 
		37.202,7.309 37.659,7.409 38.098,7.509 38.535,7.618 38.963,7.726 39.381,7.845 39.595,7.899 39.8,7.962 39.993,8.017 
		40.196,8.081 40.4,8.135 40.593,8.198 40.788,8.262 40.969,8.326 41.154,8.389 41.346,8.452 41.531,8.517 41.702,8.58 
		41.888,8.652 42.06,8.716 42.234,8.789 42.396,8.852 42.559,8.924 42.734,8.988 42.885,9.062 43.048,9.134 43.2,9.206 43.353,9.28 
		43.507,9.351 43.659,9.424 43.802,9.497 43.945,9.57 44.078,9.643 44.209,9.714 44.341,9.796 44.474,9.87 44.608,9.95 
		44.729,10.024 44.85,10.105 44.964,10.178 45.075,10.26 45.187,10.341 45.3,10.414 45.401,10.496 45.502,10.577 45.605,10.659 
		45.697,10.741 45.787,10.822 45.881,10.903 45.962,10.986 46.043,11.068 46.124,11.149 46.195,11.23 46.267,11.313 46.339,11.395 
		46.399,11.485 46.471,11.567 46.523,11.648 46.583,11.731 46.633,11.821 46.675,11.903 46.726,11.993 46.767,12.076 46.807,12.157 
		46.838,12.248 46.869,12.33 46.898,12.42 46.918,12.502 46.941,12.592 46.95,12.674 46.97,12.766 46.97,12.857 46.981,12.938 
		46.981,13.028 46.981,13.028 47.266,13.028 	"/>
	<polygon fill="#8FCBEF" points="0,13.336 0,13.474 0.296,13.474 0.296,13.336 	"/>
	<polygon fill="#8FCBEF" points="0,13.474 0,28.281 0.296,28.281 0.296,13.474 	"/>
	<polygon fill="#8FCBEF" points="0,28.281 0,28.409 0.296,28.409 0.296,28.281 	"/>
	<polygon fill="#8FCBEF" points="46.981,13.336 46.981,13.474 47.266,13.474 47.266,13.336 	"/>
	<polygon fill="#8FCBEF" points="46.981,13.474 46.981,28.281 47.266,28.281 47.266,13.474 	"/>
	<polygon fill="#8FCBEF" points="46.981,28.281 46.981,28.409 47.266,28.409 47.266,28.281 	"/>
	<polygon fill="#067CB6" points="47.123,12.13 47.093,12.502 46.999,12.865 46.857,13.229 46.655,13.583 46.389,13.928 
		46.073,14.263 45.697,14.598 45.279,14.926 44.811,15.244 44.292,15.552 43.722,15.852 43.109,16.143 42.457,16.423 41.764,16.696 
		41.021,16.951 40.247,17.206 39.432,17.441 38.577,17.668 37.689,17.877 36.774,18.086 35.815,18.268 34.827,18.44 33.82,18.603 
		32.781,18.74 31.711,18.867 30.621,18.984 29.501,19.085 28.37,19.157 27.208,19.221 26.038,19.266 24.844,19.302 23.634,19.302 
		22.431,19.302 21.239,19.266 20.068,19.221 18.906,19.157 17.776,19.085 16.656,18.984 15.565,18.867 14.495,18.74 13.457,18.603 
		12.448,18.44 11.461,18.268 10.503,18.086 9.586,17.877 8.699,17.668 7.844,17.441 7.029,17.206 6.255,16.951 5.511,16.696 
		4.819,16.423 4.156,16.143 3.545,15.852 2.985,15.552 2.465,15.244 1.997,14.926 1.569,14.598 1.203,14.263 0.886,13.928 
		0.621,13.583 0.418,13.229 0.275,12.865 0.183,12.502 0.153,12.13 0.183,11.767 0.275,11.395 0.418,11.04 0.621,10.687 
		0.886,10.333 1.203,9.996 1.569,9.661 1.997,9.333 2.465,9.015 2.985,8.707 3.545,8.407 4.156,8.117 4.819,7.835 5.511,7.563 
		6.255,7.3 7.029,7.054 7.844,6.81 8.699,6.582 9.586,6.374 10.503,6.173 11.461,5.992 12.448,5.81 13.457,5.656 14.495,5.511 
		15.565,5.384 16.656,5.267 17.776,5.175 18.906,5.093 20.068,5.03 21.239,4.984 22.431,4.958 23.634,4.949 24.844,4.958 
		26.038,4.984 27.208,5.03 28.37,5.093 29.501,5.175 30.621,5.267 31.711,5.384 32.781,5.511 33.82,5.656 34.827,5.81 35.815,5.992 
		36.774,6.173 37.689,6.374 38.577,6.582 39.432,6.81 40.247,7.054 41.021,7.3 41.764,7.563 42.457,7.835 43.109,8.117 
		43.722,8.407 44.292,8.707 44.811,9.015 45.279,9.333 45.697,9.661 46.073,9.996 46.389,10.333 46.655,10.687 46.857,11.04 
		46.999,11.395 47.093,11.767 	"/>
	<polygon fill="#8FCBEF" points="23.634,19.438 23.634,19.438 24.245,19.429 24.844,19.42 25.445,19.412 26.047,19.402 
		26.638,19.375 27.218,19.347 27.799,19.321 28.379,19.284 28.949,19.248 29.52,19.212 30.08,19.157 30.632,19.112 31.18,19.057 
		31.732,18.994 32.271,18.939 32.801,18.867 33.321,18.803 33.841,18.722 34.35,18.648 34.859,18.567 35.358,18.486 35.847,18.394 
		36.324,18.304 36.804,18.204 37.261,18.104 37.721,18.004 38.179,17.904 38.616,17.795 38.83,17.731 39.044,17.677 39.259,17.622 
		39.472,17.568 39.676,17.505 39.88,17.45 40.085,17.386 40.289,17.323 40.49,17.259 40.685,17.196 40.878,17.142 41.073,17.079 
		41.264,17.015 41.449,16.942 41.632,16.877 41.816,16.814 42,16.751 42.173,16.678 42.345,16.606 42.52,16.542 42.681,16.469 
		42.854,16.398 43.019,16.334 43.181,16.251 43.333,16.188 43.495,16.106 43.651,16.033 43.793,15.96 43.945,15.889 44.088,15.816 
		44.23,15.735 44.364,15.662 44.506,15.58 44.636,15.508 44.769,15.426 44.893,15.343 45.014,15.263 45.136,15.18 45.258,15.107 
		45.371,15.025 45.482,14.945 45.585,14.854 45.697,14.772 45.799,14.69 45.9,14.609 45.992,14.527 46.084,14.436 46.176,14.354 
		46.267,14.263 46.347,14.172 46.429,14.091 46.5,14 46.572,13.909 46.643,13.828 46.704,13.736 46.767,13.646 46.827,13.555 
		46.888,13.464 46.941,13.374 46.99,13.273 47.031,13.183 47.071,13.092 47.113,12.993 47.142,12.902 47.174,12.811 47.194,12.711 
		47.226,12.611 47.235,12.52 47.255,12.42 47.266,12.321 47.266,12.229 47.266,12.13 46.981,12.13 46.981,12.22 46.97,12.312 
		46.97,12.394 46.95,12.484 46.941,12.574 46.918,12.656 46.898,12.738 46.869,12.828 46.838,12.92 46.807,13.002 46.767,13.083 
		46.726,13.174 46.675,13.255 46.633,13.346 46.583,13.428 46.523,13.509 46.471,13.6 46.399,13.683 46.339,13.764 46.267,13.846 
		46.195,13.928 46.124,14.009 46.043,14.1 45.962,14.182 45.881,14.263 45.787,14.345 45.697,14.427 45.605,14.509 45.502,14.59 
		45.401,14.663 45.3,14.745 45.187,14.827 45.075,14.899 44.964,14.98 44.85,15.062 44.729,15.135 44.608,15.217 44.474,15.289 
		44.341,15.372 44.209,15.444 44.078,15.516 43.945,15.597 43.802,15.671 43.659,15.743 43.507,15.816 43.353,15.889 43.2,15.96 
		43.048,16.025 42.885,16.098 42.734,16.17 42.559,16.243 42.396,16.307 42.234,16.38 42.06,16.442 41.888,16.515 41.702,16.579 
		41.52,16.642 41.346,16.705 41.154,16.77 40.969,16.833 40.788,16.896 40.593,16.96 40.4,17.024 40.196,17.086 39.993,17.142 
		39.8,17.206 39.595,17.259 39.381,17.323 39.177,17.377 38.963,17.432 38.749,17.487 38.535,17.541 38.098,17.65 37.659,17.759 
		37.202,17.859 36.732,17.959 36.264,18.049 35.785,18.14 35.296,18.231 34.808,18.313 34.308,18.394 33.789,18.476 33.28,18.549 
		32.76,18.612 32.231,18.685 31.692,18.74 31.15,18.803 30.61,18.858 30.051,18.913 29.49,18.948 28.929,18.994 28.359,19.029 
		27.788,19.066 27.208,19.093 26.618,19.121 26.038,19.138 25.436,19.157 24.844,19.166 24.245,19.175 23.634,19.175 23.634,19.175 
		23.634,19.438 	"/>
	<polygon fill="#8FCBEF" points="0,12.13 0,12.13 0.01,12.229 0.01,12.321 0.02,12.42 0.041,12.52 0.051,12.611 0.072,12.711 
		0.102,12.811 0.132,12.902 0.163,12.993 0.204,13.092 0.245,13.183 0.285,13.273 0.336,13.374 0.387,13.464 0.448,13.555 
		0.499,13.646 0.571,13.736 0.632,13.828 0.704,13.909 0.774,14 0.846,14.091 0.927,14.172 1.009,14.263 1.1,14.354 1.192,14.436 
		1.284,14.527 1.376,14.609 1.478,14.69 1.578,14.772 1.68,14.854 1.792,14.945 1.906,15.025 2.017,15.107 2.14,15.18 2.262,15.263 
		2.384,15.343 2.506,15.426 2.638,15.508 2.771,15.58 2.913,15.662 3.046,15.735 3.189,15.816 3.331,15.889 3.484,15.96 
		3.627,16.033 3.78,16.106 3.942,16.188 4.095,16.251 4.259,16.334 4.422,16.398 4.595,16.469 4.758,16.542 4.93,16.606 
		5.103,16.678 5.277,16.751 5.46,16.814 5.643,16.877 5.826,16.942 6.01,17.015 6.204,17.079 6.398,17.142 6.591,17.196 
		6.785,17.259 6.989,17.323 7.182,17.386 7.386,17.45 7.6,17.505 7.802,17.568 8.016,17.622 8.23,17.677 8.444,17.731 8.658,17.795 
		9.097,17.904 9.555,18.004 10.014,18.104 10.472,18.204 10.95,18.304 11.429,18.394 11.918,18.486 12.418,18.567 12.927,18.648 
		13.437,18.722 13.956,18.803 14.475,18.867 15.005,18.939 15.545,18.994 16.095,19.057 16.635,19.112 17.195,19.157 17.756,19.212 
		18.325,19.248 18.896,19.284 19.477,19.321 20.058,19.347 20.638,19.375 21.229,19.402 21.83,19.412 22.431,19.42 23.032,19.429 
		23.634,19.438 23.634,19.175 23.032,19.175 22.431,19.166 21.84,19.157 21.239,19.138 20.659,19.121 20.068,19.093 19.488,19.066 
		18.916,19.029 18.346,18.994 17.785,18.948 17.226,18.913 16.666,18.858 16.126,18.803 15.585,18.74 15.046,18.685 14.515,18.612 
		13.996,18.549 13.477,18.476 12.968,18.394 12.468,18.313 11.979,18.231 11.491,18.14 11.012,18.049 10.544,17.959 10.075,17.859 
		9.617,17.759 9.177,17.65 8.74,17.541 8.527,17.487 8.313,17.432 8.099,17.377 7.885,17.323 7.68,17.259 7.477,17.206 
		7.273,17.142 7.08,17.086 6.876,17.024 6.683,16.96 6.489,16.896 6.305,16.833 6.113,16.77 5.928,16.705 5.745,16.642 
		5.572,16.579 5.388,16.515 5.216,16.442 5.042,16.38 4.88,16.307 4.706,16.243 4.544,16.17 4.391,16.098 4.227,16.025 4.075,15.96 
		3.923,15.889 3.769,15.816 3.616,15.743 3.474,15.671 3.331,15.597 3.198,15.516 3.056,15.444 2.934,15.372 2.802,15.289 
		2.669,15.217 2.548,15.135 2.424,15.062 2.312,14.98 2.2,14.899 2.088,14.827 1.977,14.745 1.875,14.663 1.772,14.59 1.671,14.509 
		1.578,14.427 1.487,14.345 1.396,14.263 1.315,14.182 1.233,14.1 1.151,14.009 1.07,13.928 0.999,13.846 0.937,13.764 
		0.865,13.683 0.805,13.6 0.754,13.509 0.693,13.428 0.642,13.346 0.591,13.255 0.55,13.174 0.51,13.083 0.469,13.002 0.438,12.92 
		0.407,12.828 0.377,12.738 0.357,12.656 0.336,12.574 0.316,12.484 0.305,12.394 0.296,12.312 0.296,12.22 0.296,12.13 
		0.296,12.13 0,12.13 	"/>
	<polygon fill="#8FCBEF" points="23.634,4.822 23.634,4.822 23.032,4.822 22.431,4.83 21.83,4.84 21.229,4.858 20.638,4.875 
		20.058,4.903 19.477,4.93 18.896,4.967 18.325,5.002 17.756,5.048 17.195,5.093 16.635,5.148 16.095,5.203 15.545,5.256 
		15.005,5.32 14.475,5.384 13.956,5.457 13.437,5.529 12.927,5.611 12.418,5.694 11.918,5.775 11.429,5.866 10.95,5.956 
		10.472,6.047 10.014,6.146 9.555,6.247 9.097,6.356 8.658,6.464 8.444,6.519 8.23,6.573 8.016,6.637 7.802,6.691 7.6,6.746 
		7.386,6.81 7.182,6.873 6.989,6.928 6.785,6.991 6.591,7.054 6.398,7.119 6.204,7.182 6.01,7.245 5.826,7.309 5.643,7.373 
		5.46,7.445 5.277,7.509 5.103,7.581 4.93,7.645 4.758,7.718 4.595,7.79 4.422,7.854 4.259,7.926 4.095,7.999 3.942,8.071 
		3.78,8.144 3.627,8.217 3.484,8.289 3.331,8.371 3.189,8.443 3.046,8.517 2.913,8.599 2.771,8.68 2.638,8.752 2.506,8.834 
		2.384,8.906 2.262,8.988 2.14,9.07 2.017,9.152 1.906,9.234 1.792,9.316 1.68,9.396 1.578,9.488 1.478,9.57 1.376,9.651 
		1.284,9.732 1.192,9.823 1.1,9.905 1.009,9.996 0.927,10.087 0.846,10.169 0.774,10.26 0.704,10.35 0.632,10.44 0.571,10.532 
		0.499,10.613 0.448,10.704 0.387,10.804 0.336,10.895 0.285,10.986 0.245,11.076 0.204,11.177 0.163,11.267 0.132,11.357 
		0.102,11.458 0.072,11.548 0.051,11.648 0.041,11.749 0.02,11.839 0.01,11.939 0.01,12.039 0,12.13 0.296,12.13 0.296,12.039 
		0.296,11.957 0.305,11.867 0.316,11.784 0.336,11.694 0.357,11.604 0.377,11.521 0.407,11.431 0.438,11.349 0.469,11.258 
		0.51,11.177 0.55,11.095 0.591,11.004 0.642,10.922 0.693,10.832 0.754,10.75 0.805,10.668 0.865,10.577 0.937,10.496 
		0.999,10.414 1.07,10.333 1.151,10.25 1.233,10.169 1.315,10.078 1.396,9.996 1.487,9.915 1.578,9.833 1.671,9.751 1.772,9.669 
		1.875,9.597 1.977,9.515 2.088,9.434 2.2,9.351 2.312,9.28 2.424,9.197 2.548,9.115 2.669,9.043 2.802,8.97 2.934,8.888 
		3.056,8.815 3.198,8.744 3.331,8.661 3.474,8.588 3.616,8.517 3.769,8.443 3.923,8.371 4.075,8.299 4.227,8.226 4.391,8.153 
		4.544,8.089 4.706,8.017 4.88,7.944 5.042,7.88 5.216,7.817 5.388,7.745 5.572,7.682 5.745,7.618 5.928,7.554 6.113,7.481 
		6.305,7.418 6.489,7.354 6.683,7.291 6.876,7.237 7.08,7.173 7.273,7.109 7.477,7.054 7.68,6.991 7.885,6.937 8.099,6.873 
		8.313,6.818 8.527,6.765 8.74,6.709 9.177,6.601 9.617,6.5 10.075,6.4 10.544,6.301 11.012,6.201 11.491,6.11 11.979,6.028 
		12.468,5.938 12.968,5.856 13.477,5.784 13.996,5.71 14.515,5.638 15.046,5.574 15.585,5.511 16.126,5.457 16.666,5.394 
		17.226,5.348 17.785,5.302 18.346,5.256 18.916,5.221 19.488,5.184 20.068,5.157 20.659,5.13 21.239,5.111 21.84,5.093 
		22.431,5.084 23.032,5.076 23.634,5.076 23.634,5.076 23.634,4.822 	"/>
	<polygon fill="#8FCBEF" points="47.266,12.13 47.266,12.13 47.266,12.039 47.266,11.939 47.255,11.839 47.235,11.749 
		47.226,11.648 47.194,11.548 47.174,11.458 47.142,11.357 47.113,11.267 47.071,11.177 47.031,11.076 46.99,10.986 46.941,10.895 
		46.888,10.804 46.827,10.713 46.767,10.613 46.704,10.532 46.643,10.44 46.572,10.35 46.5,10.26 46.429,10.169 46.347,10.087 
		46.267,9.996 46.176,9.905 46.084,9.823 45.992,9.732 45.9,9.651 45.799,9.57 45.697,9.488 45.585,9.396 45.482,9.316 
		45.371,9.234 45.258,9.152 45.136,9.07 45.014,8.988 44.893,8.906 44.769,8.834 44.636,8.752 44.506,8.68 44.364,8.599 
		44.23,8.517 44.088,8.443 43.945,8.371 43.793,8.289 43.651,8.217 43.495,8.144 43.333,8.071 43.181,7.999 43.019,7.926 
		42.854,7.854 42.681,7.79 42.52,7.718 42.345,7.645 42.173,7.581 42,7.509 41.816,7.445 41.632,7.373 41.449,7.309 41.264,7.245 
		41.073,7.182 40.878,7.119 40.685,7.054 40.49,6.991 40.289,6.928 40.085,6.873 39.88,6.81 39.676,6.746 39.472,6.691 
		39.044,6.573 38.616,6.464 38.179,6.356 37.721,6.247 37.261,6.146 36.804,6.047 36.324,5.956 35.847,5.866 35.358,5.775 
		34.859,5.694 34.35,5.611 33.841,5.529 33.321,5.457 32.801,5.384 32.271,5.32 31.732,5.256 31.18,5.203 30.632,5.148 30.08,5.093 
		29.52,5.048 28.949,5.002 28.379,4.967 27.799,4.93 27.218,4.903 26.638,4.875 26.047,4.858 25.445,4.84 24.844,4.83 24.245,4.822 
		23.634,4.822 23.634,5.076 24.245,5.076 24.844,5.084 25.436,5.093 26.038,5.111 26.618,5.13 27.208,5.157 27.788,5.184 
		28.359,5.221 28.929,5.256 29.49,5.302 30.051,5.348 30.61,5.394 31.15,5.457 31.692,5.511 32.231,5.574 32.76,5.638 33.28,5.71 
		33.789,5.784 34.308,5.856 34.808,5.938 35.296,6.028 35.785,6.11 36.264,6.201 36.732,6.301 37.202,6.4 37.659,6.5 38.098,6.601 
		38.535,6.709 38.963,6.818 39.381,6.937 39.595,6.991 39.8,7.054 39.993,7.109 40.196,7.173 40.4,7.237 40.593,7.291 40.788,7.354 
		40.969,7.418 41.154,7.481 41.346,7.554 41.52,7.618 41.702,7.682 41.888,7.745 42.06,7.817 42.234,7.88 42.396,7.944 
		42.559,8.017 42.734,8.089 42.885,8.153 43.048,8.226 43.2,8.299 43.353,8.371 43.507,8.443 43.659,8.517 43.802,8.588 
		43.945,8.661 44.078,8.744 44.209,8.815 44.341,8.888 44.474,8.97 44.608,9.043 44.729,9.115 44.85,9.197 44.964,9.28 
		45.075,9.351 45.187,9.434 45.3,9.515 45.401,9.597 45.502,9.669 45.605,9.751 45.697,9.833 45.787,9.915 45.881,9.996 
		45.962,10.078 46.043,10.169 46.124,10.25 46.195,10.333 46.267,10.414 46.339,10.496 46.399,10.577 46.471,10.668 46.523,10.75 
		46.583,10.832 46.633,10.922 46.675,11.004 46.726,11.095 46.767,11.177 46.807,11.258 46.838,11.349 46.869,11.431 46.898,11.521 
		46.918,11.604 46.941,11.694 46.95,11.784 46.97,11.867 46.97,11.957 46.981,12.039 46.981,12.13 46.981,12.13 47.266,12.13 	"/>
	<polygon fill="#067CB6" points="0.072,7.5 0.072,12.366 47.123,12.366 47.132,7.5 	"/>
	<polygon fill="#1E9AD7" points="47.123,7.309 47.093,7.672 46.999,8.044 46.857,8.398 46.655,8.752 46.389,9.097 46.073,9.442 
		45.697,9.778 45.279,10.096 44.811,10.414 44.292,10.722 43.722,11.032 43.109,11.313 42.457,11.604 41.764,11.867 41.021,12.13 
		40.247,12.385 39.432,12.62 38.577,12.838 37.689,13.057 36.774,13.255 35.815,13.446 34.827,13.619 33.82,13.773 32.781,13.918 
		31.711,14.045 30.621,14.155 29.501,14.254 28.37,14.336 27.208,14.4 26.038,14.445 24.844,14.472 23.634,14.481 22.431,14.472 
		21.239,14.445 20.068,14.4 18.906,14.336 17.776,14.254 16.656,14.155 15.565,14.045 14.495,13.918 13.457,13.773 12.448,13.619 
		11.461,13.446 10.503,13.255 9.586,13.057 8.699,12.838 7.844,12.62 7.029,12.385 6.255,12.13 5.511,11.867 4.819,11.604 
		4.156,11.313 3.545,11.032 2.985,10.722 2.465,10.414 1.997,10.096 1.569,9.778 1.203,9.442 0.886,9.097 0.621,8.752 0.418,8.398 
		0.275,8.044 0.183,7.672 0.153,7.309 0.183,6.937 0.275,6.573 0.418,6.219 0.621,5.866 0.886,5.511 1.203,5.175 1.569,4.84 
		1.997,4.513 2.465,4.194 2.985,3.886 3.545,3.586 4.156,3.296 4.819,3.015 5.511,2.742 6.255,2.488 7.029,2.234 7.844,1.997 
		8.699,1.771 9.586,1.562 10.503,1.362 11.461,1.171 12.448,0.998 13.457,0.844 14.495,0.699 15.565,0.572 16.656,0.455 
		17.776,0.353 18.906,0.282 20.068,0.218 21.239,0.173 22.431,0.146 23.634,0.137 24.844,0.146 26.038,0.173 27.208,0.218 
		28.37,0.282 29.501,0.353 30.621,0.455 31.711,0.572 32.781,0.699 33.82,0.844 34.827,0.998 35.815,1.171 36.774,1.362 
		37.689,1.562 38.577,1.771 39.432,1.997 40.247,2.234 41.021,2.488 41.764,2.742 42.457,3.015 43.109,3.296 43.722,3.586 
		44.292,3.886 44.811,4.194 45.279,4.513 45.697,4.84 46.073,5.175 46.389,5.511 46.655,5.866 46.857,6.219 46.999,6.573 
		47.093,6.937 	"/>
	<polygon fill="#8FCBEF" points="23.634,14.609 23.634,14.609 24.245,14.609 24.844,14.598 25.445,14.59 26.047,14.572 
		26.638,14.554 27.218,14.527 27.799,14.5 28.379,14.463 28.949,14.427 29.52,14.381 30.08,14.336 30.632,14.282 31.18,14.236 
		31.732,14.172 32.271,14.109 32.801,14.045 33.321,13.973 33.841,13.9 34.35,13.828 34.859,13.746 35.358,13.655 35.847,13.565 
		36.324,13.474 36.804,13.383 37.261,13.284 37.721,13.183 38.179,13.075 38.616,12.965 38.83,12.911 39.044,12.857 39.259,12.801 
		39.472,12.738 39.676,12.683 39.88,12.62 40.085,12.557 40.289,12.502 40.49,12.438 40.685,12.375 40.878,12.312 41.073,12.248 
		41.264,12.184 41.449,12.121 41.632,12.057 41.816,11.984 42,11.921 42.173,11.849 42.345,11.784 42.52,11.712 42.681,11.648 
		42.854,11.576 43.019,11.503 43.181,11.431 43.333,11.357 43.495,11.285 43.651,11.212 43.793,11.14 43.945,11.068 44.088,10.986 
		44.23,10.913 44.364,10.832 44.506,10.759 44.636,10.677 44.769,10.596 44.893,10.523 45.014,10.44 45.136,10.359 45.258,10.278 
		45.371,10.197 45.482,10.115 45.585,10.033 45.697,9.95 45.799,9.87 45.9,9.778 45.992,9.696 46.084,9.615 46.176,9.523 
		46.267,9.442 46.347,9.351 46.429,9.261 46.5,9.179 46.572,9.087 46.643,8.998 46.704,8.906 46.767,8.815 46.827,8.726 
		46.888,8.635 46.941,8.543 46.99,8.452 47.031,8.353 47.071,8.262 47.113,8.172 47.142,8.081 47.174,7.98 47.194,7.89 47.226,7.79 
		47.235,7.7 47.255,7.599 47.266,7.5 47.266,7.409 47.266,7.309 46.981,7.309 46.981,7.39 46.97,7.481 46.97,7.573 46.95,7.654 
		46.941,7.745 46.918,7.835 46.898,7.917 46.869,8.007 46.838,8.089 46.807,8.172 46.767,8.262 46.726,8.344 46.675,8.434 
		46.633,8.517 46.583,8.599 46.523,8.689 46.471,8.771 46.399,8.852 46.339,8.943 46.267,9.025 46.195,9.107 46.124,9.188 
		46.043,9.27 45.962,9.351 45.881,9.434 45.787,9.515 45.697,9.597 45.605,9.678 45.502,9.76 45.401,9.841 45.3,9.915 45.187,9.996 
		45.075,10.078 44.964,10.159 44.85,10.232 44.729,10.314 44.608,10.387 44.474,10.469 44.341,10.541 44.209,10.613 44.078,10.695 
		43.945,10.768 43.802,10.84 43.659,10.913 43.507,10.986 43.353,11.058 43.2,11.131 43.048,11.204 42.885,11.276 42.734,11.339 
		42.559,11.413 42.396,11.485 42.234,11.548 42.06,11.622 41.888,11.685 41.702,11.749 41.52,11.821 41.346,11.885 41.154,11.948 
		40.969,12.012 40.788,12.076 40.593,12.14 40.4,12.202 40.196,12.257 39.993,12.321 39.8,12.375 39.595,12.438 39.381,12.493 
		39.177,12.547 38.963,12.611 38.749,12.665 38.535,12.72 38.098,12.828 37.659,12.929 37.202,13.028 36.732,13.129 36.264,13.229 
		35.785,13.318 35.296,13.401 34.808,13.491 34.308,13.574 33.789,13.646 33.28,13.718 32.76,13.791 32.231,13.855 31.692,13.918 
		31.15,13.973 30.61,14.037 30.051,14.081 29.49,14.127 28.929,14.172 28.359,14.208 27.788,14.236 27.208,14.271 26.618,14.3 
		26.038,14.318 25.436,14.336 24.844,14.345 24.245,14.354 23.634,14.354 23.634,14.354 23.634,14.354 23.622,14.354 23.602,14.354 
		23.593,14.363 23.571,14.363 23.562,14.373 23.551,14.381 23.541,14.381 23.531,14.391 23.51,14.408 23.5,14.436 23.5,14.454 
		23.5,14.481 23.5,14.509 23.5,14.527 23.51,14.544 23.531,14.572 23.541,14.582 23.551,14.59 23.562,14.59 23.571,14.598 
		23.593,14.598 23.602,14.609 23.622,14.609 	"/>
	<polygon fill="#8FCBEF" points="0,7.309 0,7.309 0.01,7.409 0.01,7.5 0.02,7.599 0.041,7.7 0.051,7.79 0.072,7.89 0.102,7.98 
		0.132,8.081 0.163,8.172 0.204,8.262 0.245,8.363 0.285,8.452 0.336,8.543 0.387,8.635 0.448,8.726 0.499,8.815 0.571,8.906 
		0.632,8.998 0.704,9.087 0.774,9.179 0.846,9.261 0.927,9.351 1.009,9.442 1.1,9.523 1.192,9.615 1.284,9.696 1.376,9.778 
		1.478,9.87 1.578,9.95 1.68,10.033 1.792,10.115 1.906,10.197 2.017,10.278 2.14,10.359 2.262,10.44 2.384,10.523 2.506,10.596 
		2.638,10.677 2.771,10.759 2.913,10.832 3.046,10.913 3.189,10.986 3.331,11.068 3.484,11.14 3.627,11.212 3.78,11.285 
		3.942,11.357 4.095,11.431 4.259,11.503 4.422,11.576 4.595,11.648 4.758,11.712 4.93,11.784 5.103,11.849 5.277,11.921 
		5.46,11.984 5.643,12.057 5.826,12.121 6.01,12.184 6.204,12.248 6.398,12.312 6.591,12.375 6.785,12.438 6.989,12.502 
		7.182,12.557 7.386,12.62 7.6,12.683 7.802,12.738 8.016,12.801 8.23,12.857 8.444,12.911 8.658,12.965 9.097,13.075 9.555,13.183 
		10.014,13.284 10.472,13.383 10.95,13.474 11.429,13.565 11.918,13.655 12.418,13.746 12.927,13.828 13.437,13.9 13.956,13.973 
		14.475,14.045 15.005,14.109 15.545,14.172 16.095,14.236 16.635,14.282 17.195,14.336 17.756,14.381 18.325,14.427 18.896,14.463 
		19.477,14.5 20.058,14.527 20.638,14.554 21.229,14.572 21.83,14.59 22.431,14.598 23.032,14.609 23.634,14.609 23.634,14.354 
		23.032,14.354 22.431,14.345 21.84,14.336 21.239,14.318 20.659,14.3 20.068,14.271 19.488,14.236 18.916,14.208 18.346,14.172 
		17.785,14.127 17.226,14.081 16.666,14.037 16.126,13.973 15.585,13.918 15.046,13.855 14.515,13.791 13.996,13.718 13.477,13.646 
		12.968,13.574 12.468,13.491 11.979,13.401 11.491,13.318 11.012,13.229 10.544,13.129 10.075,13.028 9.617,12.929 9.177,12.828 
		8.74,12.72 8.527,12.665 8.313,12.611 8.099,12.547 7.885,12.493 7.68,12.438 7.477,12.375 7.273,12.321 7.08,12.257 6.876,12.202 
		6.683,12.14 6.489,12.076 6.305,12.012 6.113,11.948 5.928,11.885 5.745,11.821 5.572,11.749 5.388,11.685 5.216,11.622 
		5.042,11.548 4.88,11.485 4.706,11.413 4.544,11.339 4.391,11.276 4.227,11.204 4.075,11.131 3.923,11.058 3.769,10.986 
		3.616,10.913 3.474,10.84 3.331,10.768 3.198,10.695 3.056,10.613 2.934,10.541 2.802,10.469 2.669,10.387 2.548,10.314 
		2.424,10.232 2.312,10.159 2.2,10.078 2.088,9.996 1.977,9.915 1.875,9.841 1.772,9.76 1.671,9.678 1.578,9.597 1.487,9.515 
		1.396,9.434 1.315,9.351 1.233,9.27 1.151,9.188 1.07,9.107 0.999,9.025 0.937,8.943 0.865,8.852 0.805,8.771 0.754,8.689 
		0.693,8.599 0.642,8.517 0.591,8.434 0.55,8.344 0.51,8.262 0.469,8.172 0.438,8.089 0.407,8.007 0.377,7.917 0.357,7.835 
		0.336,7.745 0.316,7.654 0.305,7.573 0.296,7.481 0.296,7.39 0.296,7.309 0.296,7.309 0.296,7.309 0.296,7.291 0.285,7.281 
		0.285,7.263 0.275,7.255 0.275,7.237 0.265,7.228 0.255,7.218 0.245,7.209 0.224,7.2 0.204,7.182 0.174,7.182 0.153,7.182 
		0.122,7.182 0.092,7.182 0.072,7.2 0.051,7.209 0.041,7.218 0.031,7.228 0.02,7.237 0.02,7.255 0.01,7.263 0.01,7.281 0,7.291 	"/>
	<polygon fill="#8FCBEF" points="23.634,0 23.634,0 23.032,0.009 22.431,0.018 21.83,0.028 21.229,0.045 20.638,0.063 20.058,0.091 
		19.477,0.118 18.896,0.155 18.325,0.19 17.756,0.227 17.195,0.282 16.635,0.327 16.095,0.381 15.545,0.445 15.005,0.5 
		14.475,0.572 13.956,0.635 13.437,0.718 12.927,0.79 12.418,0.871 11.918,0.954 11.429,1.043 10.95,1.135 10.472,1.234 
		10.014,1.335 9.555,1.435 9.097,1.544 8.658,1.653 8.23,1.762 7.802,1.871 7.6,1.934 7.386,1.997 7.182,2.052 6.989,2.116 
		6.785,2.179 6.591,2.243 6.398,2.297 6.204,2.36 6.01,2.433 5.826,2.497 5.643,2.561 5.46,2.624 5.277,2.697 5.103,2.76 
		4.93,2.833 4.758,2.896 4.595,2.969 4.422,3.042 4.259,3.104 4.095,3.187 3.942,3.25 3.78,3.333 3.627,3.405 3.484,3.478 
		3.331,3.549 3.189,3.623 3.046,3.704 2.913,3.777 2.771,3.858 2.638,3.931 2.506,4.013 2.384,4.095 2.262,4.176 2.14,4.249 
		2.017,4.331 1.906,4.414 1.792,4.494 1.68,4.586 1.578,4.667 1.478,4.749 1.376,4.83 1.284,4.921 1.192,5.002 1.1,5.084 
		1.009,5.175 0.927,5.267 0.846,5.348 0.774,5.439 0.704,5.529 0.632,5.62 0.571,5.703 0.499,5.792 0.448,5.884 0.387,5.974 
		0.336,6.074 0.285,6.166 0.245,6.256 0.204,6.346 0.163,6.446 0.132,6.538 0.102,6.627 0.072,6.728 0.051,6.828 0.041,6.918 
		0.02,7.019 0.01,7.109 0.01,7.209 0,7.309 0.296,7.309 0.296,7.218 0.296,7.127 0.305,7.045 0.316,6.955 0.336,6.873 0.357,6.783 
		0.377,6.701 0.407,6.61 0.438,6.528 0.469,6.437 0.51,6.356 0.55,6.265 0.591,6.184 0.642,6.092 0.693,6.01 0.754,5.93 
		0.805,5.847 0.865,5.756 0.937,5.674 0.999,5.593 1.07,5.511 1.151,5.43 1.233,5.348 1.315,5.256 1.396,5.175 1.487,5.093 
		1.578,5.012 1.671,4.939 1.772,4.858 1.875,4.776 1.977,4.694 2.088,4.612 2.2,4.539 2.312,4.458 2.424,4.377 2.548,4.304 
		2.669,4.222 2.802,4.149 2.934,4.077 3.056,3.995 3.198,3.923 3.331,3.85 3.474,3.768 3.616,3.704 3.769,3.623 3.923,3.549 
		4.075,3.478 4.227,3.414 4.391,3.342 4.544,3.27 4.706,3.196 4.88,3.133 5.042,3.06 5.216,2.997 5.388,2.923 5.572,2.86 
		5.745,2.797 5.928,2.733 6.113,2.669 6.305,2.606 6.489,2.542 6.683,2.479 6.876,2.416 7.08,2.352 7.273,2.297 7.477,2.234 
		7.68,2.179 7.885,2.125 8.313,2.007 8.74,1.897 9.177,1.789 9.617,1.679 10.075,1.58 10.544,1.48 11.012,1.39 11.491,1.298 
		11.979,1.208 12.468,1.125 12.968,1.043 13.477,0.972 13.996,0.89 14.515,0.826 15.046,0.754 15.585,0.699 16.126,0.635 
		16.666,0.582 17.226,0.537 17.785,0.49 18.346,0.445 18.916,0.408 19.488,0.372 20.068,0.345 20.659,0.318 21.239,0.3 21.84,0.282 
		22.431,0.272 23.032,0.264 23.634,0.264 23.634,0.264 23.634,0.264 23.652,0.264 23.673,0.254 23.684,0.254 23.705,0.246 
		23.714,0.246 23.724,0.236 23.735,0.227 23.745,0.218 23.764,0.201 23.776,0.181 23.776,0.155 23.785,0.137 23.776,0.109 
		23.776,0.082 23.764,0.063 23.745,0.045 23.735,0.037 23.724,0.028 23.714,0.018 23.705,0.018 23.684,0.009 23.673,0.009 23.652,0 
			"/>
	<polygon fill="#8FCBEF" points="47.266,7.309 47.266,7.209 47.266,7.109 47.255,7.019 47.235,6.918 47.226,6.828 47.194,6.728 
		47.174,6.627 47.142,6.538 47.113,6.446 47.071,6.346 47.031,6.256 46.99,6.166 46.941,6.074 46.888,5.974 46.827,5.884 
		46.767,5.792 46.704,5.703 46.643,5.62 46.572,5.529 46.5,5.439 46.429,5.348 46.347,5.267 46.267,5.175 46.176,5.084 
		46.084,5.002 45.992,4.921 45.9,4.83 45.799,4.749 45.697,4.667 45.585,4.586 45.482,4.494 45.371,4.414 45.258,4.331 
		45.136,4.249 45.014,4.176 44.893,4.095 44.769,4.013 44.636,3.931 44.506,3.858 44.364,3.777 44.23,3.704 44.088,3.623 
		43.945,3.549 43.793,3.478 43.651,3.405 43.495,3.333 43.333,3.25 43.181,3.187 43.019,3.104 42.854,3.042 42.681,2.969 
		42.52,2.896 42.345,2.833 42.173,2.76 42,2.697 41.816,2.624 41.632,2.561 41.449,2.497 41.264,2.433 41.073,2.36 40.878,2.297 
		40.685,2.243 40.49,2.179 40.289,2.116 40.085,2.052 39.88,1.997 39.676,1.934 39.472,1.871 39.044,1.762 38.616,1.653 
		38.179,1.544 37.721,1.435 37.261,1.335 36.804,1.234 36.324,1.135 35.847,1.043 35.358,0.954 34.859,0.871 34.35,0.79 
		33.841,0.718 33.321,0.635 32.801,0.572 32.271,0.5 31.732,0.445 31.18,0.381 30.632,0.327 30.08,0.282 29.52,0.227 28.949,0.19 
		28.379,0.155 27.799,0.118 27.218,0.091 26.638,0.063 26.047,0.045 25.445,0.028 24.844,0.018 24.245,0.009 23.634,0 23.634,0.264 
		24.245,0.264 24.844,0.272 25.436,0.282 26.038,0.3 26.618,0.318 27.208,0.345 27.788,0.372 28.359,0.408 28.929,0.445 29.49,0.49 
		30.051,0.537 30.61,0.582 31.15,0.635 31.692,0.699 32.231,0.754 32.76,0.826 33.28,0.89 33.789,0.972 34.308,1.043 34.808,1.125 
		35.296,1.208 35.785,1.298 36.264,1.39 36.732,1.48 37.202,1.58 37.659,1.679 38.098,1.789 38.535,1.897 38.963,2.007 
		39.381,2.125 39.595,2.179 39.8,2.234 39.993,2.297 40.196,2.352 40.4,2.416 40.593,2.479 40.788,2.542 40.969,2.606 41.154,2.669 
		41.346,2.733 41.531,2.797 41.702,2.86 41.888,2.923 42.06,2.997 42.234,3.06 42.396,3.133 42.559,3.196 42.734,3.27 42.885,3.342 
		43.048,3.414 43.2,3.478 43.353,3.549 43.507,3.623 43.659,3.704 43.802,3.768 43.945,3.85 44.078,3.923 44.209,3.995 
		44.341,4.077 44.474,4.149 44.608,4.222 44.729,4.304 44.85,4.377 44.964,4.458 45.075,4.539 45.187,4.612 45.3,4.694 
		45.401,4.776 45.502,4.858 45.605,4.939 45.697,5.012 45.787,5.093 45.881,5.175 45.962,5.256 46.043,5.348 46.124,5.43 
		46.195,5.511 46.267,5.593 46.339,5.674 46.399,5.756 46.471,5.847 46.523,5.93 46.583,6.01 46.633,6.092 46.675,6.184 
		46.726,6.265 46.767,6.356 46.807,6.437 46.838,6.528 46.869,6.61 46.898,6.701 46.918,6.783 46.941,6.873 46.95,6.955 
		46.97,7.045 46.97,7.127 46.981,7.218 46.981,7.309 	"/>
	<polygon fill="#8FCBEF" points="0,7.228 0,7.354 0.296,7.354 0.296,7.228 	"/>
	<polygon fill="#8FCBEF" points="0,7.354 0,12.447 0.296,12.447 0.296,7.354 	"/>
	<polygon fill="#8FCBEF" points="0,12.447 0,12.574 0.296,12.574 0.296,12.447 	"/>
	<polygon fill="#8FCBEF" points="46.981,7.228 46.981,7.354 47.266,7.354 47.266,7.228 	"/>
	<polygon fill="#8FCBEF" points="46.981,7.354 46.981,12.447 47.266,12.447 47.266,7.354 	"/>
	<polygon fill="#8FCBEF" points="46.981,12.447 46.981,12.574 47.266,12.574 47.266,12.447 	"/>
	<polygon fill="#1F1A17" points="13.059,4.594 13.049,4.586 13.029,4.586 13.019,4.576 12.998,4.576 12.988,4.576 12.968,4.586 
		12.958,4.586 12.948,4.594 12.927,4.603 12.907,4.621 12.886,4.639 12.876,4.657 12.865,4.676 12.865,4.703 12.865,4.73 
		12.865,4.749 12.865,4.757 12.876,4.776 12.886,4.785 12.896,4.793 12.907,4.803 12.917,4.812 12.937,4.822 12.948,4.83 	"/>
	<polygon fill="#1F1A17" points="18.122,6.582 13.059,4.594 12.948,4.83 18,6.818 	"/>
	<polygon fill="#1F1A17" points="18,6.818 18.02,6.828 18.041,6.828 18.051,6.836 18.071,6.836 18.081,6.836 18.091,6.828 
		18.112,6.828 18.122,6.818 18.142,6.81 18.162,6.791 18.183,6.773 18.193,6.755 18.203,6.728 18.203,6.709 18.203,6.682 
		18.203,6.664 18.193,6.646 18.193,6.637 18.183,6.627 18.172,6.618 18.162,6.61 18.152,6.601 18.132,6.592 18.122,6.582 	"/>
	<polygon fill="#045981" points="23.907,9.378 23.776,9.324 23.664,9.561 23.796,9.606 	"/>
	<polygon fill="#045981" points="28.929,11.357 23.907,9.378 23.796,9.606 28.807,11.585 	"/>
	<polygon fill="#045981" points="28.807,11.585 28.941,11.639 29.052,11.404 28.929,11.357 	"/>
	<polygon fill="#045981" points="1.141,9.043 1.12,9.043 1.111,9.052 1.091,9.062 1.08,9.07 1.07,9.079 1.07,9.087 1.06,9.097 
		1.05,9.115 1.05,9.134 1.05,9.161 1.05,9.179 1.06,9.206 1.07,9.225 1.091,9.243 1.111,9.261 1.131,9.28 1.141,9.28 1.151,9.288 
		1.172,9.288 1.182,9.288 1.192,9.288 1.212,9.288 1.233,9.28 1.243,9.28 	"/>
	<polygon fill="#045981" points="25.517,0.19 1.141,9.043 1.243,9.28 25.619,0.427 	"/>
	<polygon fill="#045981" points="25.619,0.427 25.639,0.417 25.65,0.408 25.659,0.399 25.669,0.39 25.682,0.381 25.691,0.372 
		25.7,0.363 25.7,0.353 25.711,0.327 25.711,0.3 25.711,0.282 25.7,0.254 25.691,0.236 25.669,0.218 25.65,0.201 25.629,0.19 
		25.619,0.181 25.598,0.181 25.588,0.173 25.579,0.173 25.558,0.173 25.548,0.181 25.526,0.181 25.517,0.19 	"/>
	<polygon fill="#045981" points="5.359,11.767 5.338,11.767 5.327,11.775 5.317,11.784 5.307,11.794 5.297,11.803 5.287,11.812 
		5.277,11.821 5.277,11.839 5.267,11.857 5.267,11.885 5.277,11.903 5.277,11.93 5.287,11.948 5.307,11.966 5.327,11.984 
		5.348,11.993 5.359,12.002 5.378,12.012 5.388,12.012 5.399,12.012 5.419,12.012 5.43,12.012 5.45,12.002 5.469,12.002 	"/>
	<polygon fill="#045981" points="34.859,1.053 5.359,11.767 5.469,12.002 34.96,1.289 	"/>
	<polygon fill="#045981" points="34.96,1.289 34.969,1.281 34.991,1.271 35.001,1.263 35.011,1.252 35.022,1.244 35.031,1.234 
		35.041,1.227 35.041,1.217 35.051,1.189 35.051,1.163 35.051,1.145 35.041,1.117 35.031,1.099 35.011,1.08 34.991,1.062 
		34.969,1.053 34.96,1.043 34.939,1.043 34.929,1.035 34.92,1.035 34.899,1.035 34.888,1.043 34.868,1.043 34.859,1.053 	"/>
	<polygon fill="#045981" points="12.092,13.501 12.081,13.509 12.061,13.519 12.05,13.527 12.04,13.538 12.031,13.546 12.02,13.555 
		12.02,13.565 12.01,13.574 12,13.6 12,13.619 12.01,13.646 12.02,13.673 12.031,13.692 12.04,13.71 12.061,13.728 12.092,13.736 
		12.102,13.746 12.112,13.746 12.122,13.746 12.142,13.746 12.153,13.746 12.173,13.746 12.182,13.746 12.203,13.736 	"/>
	<polygon fill="#045981" points="41.775,2.724 12.092,13.501 12.203,13.736 41.888,2.959 	"/>
	<polygon fill="#045981" points="41.888,2.959 41.906,2.951 41.917,2.942 41.928,2.932 41.938,2.923 41.948,2.914 41.959,2.906 
		41.959,2.896 41.968,2.887 41.968,2.86 41.978,2.842 41.968,2.815 41.968,2.787 41.948,2.769 41.938,2.751 41.917,2.733 
		41.896,2.724 41.888,2.715 41.867,2.715 41.857,2.715 41.835,2.715 41.825,2.715 41.816,2.715 41.796,2.715 41.775,2.724 	"/>
	<polygon fill="#045981" points="1.415,5.211 1.396,5.211 1.385,5.221 1.376,5.23 1.365,5.239 1.355,5.248 1.344,5.256 1.335,5.267 
		1.335,5.284 1.324,5.302 1.324,5.33 1.324,5.348 1.335,5.375 1.344,5.394 1.365,5.412 1.385,5.43 1.406,5.439 1.415,5.448 
		1.435,5.457 1.448,5.457 1.457,5.457 1.478,5.457 1.487,5.457 1.507,5.448 1.518,5.448 	"/>
	<polygon fill="#045981" points="13.09,0.972 1.415,5.211 1.518,5.448 13.192,1.208 	"/>
	<polygon fill="#045981" points="13.192,1.208 13.212,1.199 13.222,1.189 13.243,1.181 13.253,1.171 13.253,1.163 13.264,1.153 
		13.274,1.145 13.274,1.135 13.283,1.107 13.283,1.08 13.283,1.062 13.274,1.035 13.264,1.016 13.243,0.998 13.233,0.98 
		13.202,0.972 13.192,0.962 13.181,0.962 13.161,0.954 13.151,0.954 13.14,0.954 13.121,0.954 13.1,0.962 13.09,0.972 	"/>
	<polygon fill="#045981" points="21.167,14.254 21.157,14.263 21.137,14.271 21.127,14.282 21.116,14.291 21.106,14.3 
		21.096,14.309 21.096,14.318 21.086,14.327 21.086,14.354 21.075,14.381 21.086,14.4 21.086,14.427 21.106,14.445 21.116,14.463 
		21.137,14.481 21.157,14.49 21.177,14.5 21.188,14.5 21.198,14.509 21.218,14.509 21.229,14.509 21.249,14.5 21.26,14.5 
		21.279,14.49 	"/>
	<polygon fill="#045981" points="46.073,5.211 21.167,14.254 21.279,14.49 46.176,5.448 	"/>
	<polygon fill="#045981" points="46.176,5.448 46.195,5.439 46.206,5.43 46.227,5.43 46.238,5.421 46.247,5.412 46.247,5.394 
		46.257,5.384 46.267,5.375 46.267,5.348 46.267,5.33 46.267,5.302 46.257,5.284 46.247,5.256 46.227,5.239 46.215,5.23 
		46.186,5.211 46.176,5.211 46.166,5.203 46.156,5.203 46.135,5.203 46.124,5.203 46.104,5.203 46.084,5.211 46.073,5.211 	"/>
	<polygon fill="#045981" points="37.538,12.902 37.527,12.911 37.507,12.92 37.498,12.929 37.486,12.938 37.475,12.947 
		37.475,12.956 37.467,12.965 37.455,12.974 37.455,13.002 37.455,13.028 37.455,13.046 37.467,13.075 37.475,13.092 37.498,13.111 
		37.517,13.129 37.538,13.138 37.547,13.146 37.569,13.146 37.578,13.146 37.588,13.146 37.609,13.146 37.618,13.146 37.64,13.146 
		37.659,13.138 	"/>
	<polygon fill="#045981" points="45.401,9.841 37.538,12.902 37.659,13.138 45.513,10.078 	"/>
	<polygon fill="#045981" points="45.513,10.078 45.524,10.078 45.544,10.069 45.553,10.06 45.564,10.051 45.573,10.042 
		45.585,10.024 45.585,10.014 45.595,10.005 45.595,9.978 45.595,9.96 45.595,9.933 45.585,9.915 45.573,9.896 45.553,9.87 
		45.534,9.86 45.513,9.841 45.502,9.841 45.482,9.833 45.472,9.833 45.464,9.833 45.443,9.833 45.431,9.833 45.411,9.841 
		45.401,9.841 	"/>
	<polygon fill="#045981" points="3.657,4.531 3.637,4.522 3.627,4.522 3.607,4.513 3.595,4.513 3.576,4.513 3.566,4.522 
		3.545,4.522 3.535,4.531 3.514,4.539 3.494,4.557 3.484,4.576 3.464,4.594 3.453,4.612 3.453,4.639 3.453,4.667 3.453,4.685 
		3.464,4.694 3.474,4.712 3.484,4.721 3.484,4.73 3.494,4.74 3.514,4.749 3.524,4.757 3.545,4.767 	"/>
	<polygon fill="#045981" points="8.425,6.41 3.657,4.531 3.545,4.767 8.313,6.646 	"/>
	<polygon fill="#045981" points="8.313,6.646 8.322,6.646 8.343,6.646 8.353,6.655 8.372,6.655 8.385,6.655 8.393,6.655 
		8.414,6.646 8.425,6.646 8.444,6.627 8.465,6.618 8.486,6.601 8.495,6.573 8.506,6.555 8.506,6.528 8.506,6.5 8.506,6.483 
		8.495,6.473 8.495,6.464 8.486,6.446 8.474,6.437 8.465,6.427 8.456,6.419 8.435,6.419 8.425,6.41 	"/>
	<polygon fill="#045981" points="13.264,1.035 13.243,1.035 13.233,1.027 13.212,1.027 13.192,1.027 13.181,1.027 13.172,1.027 
		13.151,1.027 13.14,1.035 13.121,1.043 13.1,1.062 13.079,1.08 13.07,1.099 13.059,1.125 13.059,1.145 13.059,1.171 13.059,1.199 
		13.07,1.208 13.07,1.217 13.079,1.227 13.09,1.234 13.1,1.244 13.11,1.252 13.131,1.263 13.14,1.271 	"/>
	<polygon fill="#045981" points="17.898,2.86 13.264,1.035 13.14,1.271 17.776,3.096 	"/>
	<polygon fill="#045981" points="17.776,3.096 17.796,3.104 17.806,3.104 17.826,3.104 17.837,3.104 17.857,3.104 17.867,3.104 
		17.887,3.104 17.898,3.096 17.919,3.087 17.938,3.068 17.958,3.051 17.969,3.033 17.979,3.005 17.979,2.987 17.979,2.959 
		17.979,2.932 17.969,2.923 17.958,2.914 17.958,2.906 17.948,2.896 17.938,2.887 17.927,2.878 17.908,2.869 17.898,2.86 	"/>
	<polygon fill="#045981" points="3.566,8.289 3.555,8.28 3.535,8.28 3.524,8.28 3.504,8.271 3.494,8.28 3.484,8.28 3.464,8.28 
		3.453,8.289 3.433,8.299 3.413,8.317 3.392,8.335 3.382,8.353 3.372,8.38 3.362,8.398 3.362,8.426 3.372,8.443 3.382,8.461 
		3.382,8.471 3.392,8.48 3.403,8.489 3.413,8.498 3.423,8.507 3.433,8.517 3.453,8.525 	"/>
	<polygon fill="#045981" points="9.097,10.469 3.566,8.289 3.453,8.525 8.974,10.695 	"/>
	<polygon fill="#045981" points="8.974,10.695 8.995,10.704 9.005,10.704 9.025,10.713 9.035,10.713 9.056,10.713 9.066,10.704 
		9.076,10.704 9.097,10.695 9.116,10.687 9.137,10.677 9.148,10.659 9.168,10.631 9.177,10.613 9.177,10.587 9.177,10.559 
		9.168,10.541 9.168,10.532 9.158,10.514 9.158,10.505 9.137,10.496 9.137,10.487 9.116,10.478 9.107,10.478 9.097,10.469 	"/>
	<polygon fill="#045981" points="13.283,4.776 13.274,4.767 13.253,4.767 13.233,4.757 13.222,4.757 13.202,4.757 13.192,4.767 
		13.181,4.767 13.172,4.776 13.14,4.785 13.121,4.803 13.11,4.822 13.09,4.84 13.09,4.858 13.079,4.884 13.079,4.912 13.09,4.93 
		13.09,4.939 13.1,4.958 13.11,4.967 13.11,4.976 13.131,4.984 13.14,4.994 13.151,5.002 13.172,5.012 	"/>
	<polygon fill="#045981" points="18.723,6.918 13.283,4.776 13.172,5.012 18.611,7.154 	"/>
	<polygon fill="#045981" points="18.611,7.154 18.621,7.154 18.642,7.164 18.661,7.164 18.673,7.164 18.682,7.164 18.702,7.164 
		18.713,7.164 18.723,7.154 18.754,7.136 18.773,7.127 18.784,7.109 18.794,7.082 18.804,7.063 18.815,7.037 18.815,7.019 
		18.804,6.991 18.794,6.982 18.794,6.973 18.784,6.964 18.773,6.955 18.763,6.937 18.754,6.937 18.743,6.928 18.723,6.918 	"/>
	<polygon fill="#045981" points="23.093,1.181 23.083,1.171 23.063,1.171 23.052,1.171 23.032,1.171 23.021,1.171 23.012,1.171 
		22.991,1.171 22.98,1.181 22.961,1.189 22.94,1.208 22.921,1.227 22.908,1.244 22.9,1.271 22.9,1.289 22.9,1.317 22.9,1.344 
		22.908,1.354 22.908,1.362 22.921,1.372 22.93,1.38 22.94,1.39 22.95,1.398 22.97,1.408 22.98,1.417 	"/>
	<polygon fill="#045981" points="28.512,3.314 23.093,1.181 22.98,1.417 28.402,3.549 	"/>
	<polygon fill="#045981" points="28.402,3.549 28.42,3.559 28.43,3.559 28.45,3.559 28.46,3.559 28.473,3.559 28.492,3.559 
		28.502,3.559 28.522,3.549 28.544,3.541 28.563,3.523 28.573,3.504 28.594,3.486 28.594,3.46 28.603,3.442 28.603,3.414 
		28.594,3.396 28.594,3.377 28.584,3.368 28.573,3.36 28.563,3.351 28.563,3.342 28.544,3.333 28.532,3.323 28.512,3.314 	"/>
	<polygon fill="#045981" points="13.967,8.726 13.956,8.726 13.936,8.716 13.915,8.716 13.905,8.716 13.885,8.716 13.875,8.716 
		13.865,8.726 13.853,8.726 13.823,8.744 13.803,8.752 13.793,8.771 13.772,8.798 13.772,8.815 13.763,8.843 13.763,8.861 
		13.772,8.888 13.772,8.897 13.781,8.906 13.793,8.924 13.803,8.935 13.813,8.943 13.823,8.953 13.834,8.953 13.853,8.961 	"/>
	<polygon fill="#045981" points="19.263,10.814 13.967,8.726 13.853,8.961 19.141,11.05 	"/>
	<polygon fill="#045981" points="19.141,11.05 19.16,11.05 19.181,11.058 19.192,11.058 19.201,11.058 19.222,11.058 19.232,11.058 
		19.253,11.058 19.263,11.05 19.283,11.04 19.303,11.022 19.324,11.004 19.334,10.986 19.345,10.958 19.345,10.94 19.345,10.913 
		19.345,10.885 19.334,10.877 19.334,10.867 19.324,10.858 19.314,10.85 19.303,10.84 19.294,10.832 19.274,10.822 19.263,10.814 	
		"/>
	<polygon fill="#045981" points="23.785,5.203 23.776,5.203 23.756,5.193 23.735,5.193 23.724,5.193 23.714,5.193 23.693,5.193 
		23.684,5.203 23.673,5.203 23.643,5.211 23.634,5.23 23.613,5.248 23.602,5.267 23.593,5.293 23.581,5.311 23.581,5.339 
		23.593,5.365 23.593,5.375 23.602,5.384 23.613,5.394 23.622,5.412 23.634,5.412 23.643,5.421 23.652,5.43 23.673,5.439 	"/>
	<polygon fill="#045981" points="29.102,7.3 23.785,5.203 23.673,5.439 28.991,7.535 	"/>
	<polygon fill="#045981" points="28.991,7.535 29.011,7.535 29.021,7.544 29.044,7.544 29.052,7.544 29.062,7.544 29.082,7.544 
		29.092,7.544 29.102,7.535 29.134,7.527 29.154,7.509 29.164,7.491 29.186,7.472 29.186,7.445 29.195,7.427 29.195,7.4 
		29.186,7.373 29.186,7.363 29.174,7.354 29.164,7.345 29.154,7.336 29.144,7.327 29.134,7.317 29.124,7.309 29.102,7.3 	"/>
	<polygon fill="#045981" points="33.534,1.58 33.513,1.571 33.504,1.562 33.484,1.562 33.472,1.562 33.452,1.562 33.442,1.562 
		33.433,1.571 33.412,1.571 33.391,1.589 33.371,1.607 33.362,1.625 33.341,1.644 33.341,1.661 33.329,1.689 33.329,1.707 
		33.341,1.734 33.341,1.743 33.351,1.753 33.351,1.771 33.362,1.78 33.371,1.789 33.381,1.798 33.401,1.807 33.412,1.816 	"/>
	<polygon fill="#045981" points="38.883,3.686 33.534,1.58 33.412,1.816 38.77,3.923 	"/>
	<polygon fill="#045981" points="38.77,3.923 38.781,3.923 38.8,3.931 38.811,3.931 38.83,3.931 38.841,3.931 38.862,3.931 
		38.872,3.923 38.883,3.923 38.902,3.913 38.933,3.895 38.943,3.876 38.953,3.85 38.963,3.832 38.973,3.804 38.973,3.786 
		38.963,3.759 38.953,3.75 38.953,3.74 38.943,3.722 38.933,3.713 38.924,3.704 38.912,3.695 38.902,3.686 38.883,3.686 	"/>
	<polygon fill="#045981" points="34.47,5.683 34.461,5.683 34.44,5.674 34.431,5.674 34.411,5.674 34.399,5.674 34.379,5.674 
		34.369,5.683 34.359,5.683 34.34,5.694 34.319,5.71 34.298,5.729 34.288,5.747 34.279,5.775 34.268,5.792 34.268,5.82 
		34.279,5.847 34.288,5.856 34.288,5.866 34.298,5.875 34.308,5.884 34.319,5.893 34.328,5.901 34.34,5.912 34.359,5.919 	"/>
	<polygon fill="#045981" points="39.329,7.599 34.47,5.683 34.359,5.919 39.219,7.835 	"/>
	<polygon fill="#045981" points="39.219,7.835 39.238,7.845 39.248,7.845 39.269,7.845 39.28,7.845 39.29,7.845 39.31,7.845 
		39.32,7.845 39.341,7.835 39.361,7.826 39.381,7.808 39.391,7.79 39.401,7.771 39.411,7.745 39.423,7.718 39.423,7.7 39.411,7.672 
		39.411,7.663 39.401,7.654 39.391,7.645 39.381,7.636 39.381,7.626 39.361,7.618 39.351,7.608 39.329,7.599 	"/>
	<polygon fill="#045981" points="24.885,12.974 24.875,12.965 24.855,12.965 24.836,12.956 24.825,12.956 24.813,12.956 
		24.795,12.965 24.783,12.965 24.774,12.965 24.754,12.983 24.723,12.993 24.713,13.02 24.702,13.038 24.693,13.057 24.682,13.083 
		24.682,13.111 24.693,13.129 24.702,13.138 24.702,13.146 24.713,13.164 24.723,13.174 24.733,13.183 24.742,13.192 24.754,13.202 
		24.774,13.202 	"/>
	<polygon fill="#045981" points="28.198,14.271 24.885,12.974 24.774,13.202 28.085,14.509 	"/>
	<polygon fill="#045981" points="28.085,14.509 28.094,14.518 28.115,14.518 28.126,14.518 28.145,14.518 28.156,14.518 
		28.175,14.518 28.187,14.518 28.198,14.509 28.217,14.5 28.237,14.481 28.258,14.463 28.268,14.445 28.278,14.417 28.288,14.4 
		28.278,14.373 28.278,14.345 28.268,14.336 28.268,14.327 28.258,14.318 28.246,14.309 28.237,14.3 28.227,14.291 28.217,14.282 
		28.198,14.271 	"/>
	<polygon fill="#045981" points="34.644,9.442 34.625,9.442 34.614,9.434 34.594,9.434 34.583,9.434 34.564,9.434 34.553,9.434 
		34.542,9.442 34.523,9.442 34.502,9.452 34.482,9.47 34.47,9.488 34.451,9.505 34.451,9.534 34.44,9.561 34.44,9.579 34.451,9.606 
		34.451,9.615 34.461,9.625 34.47,9.633 34.47,9.651 34.482,9.661 34.502,9.669 34.512,9.669 34.531,9.678 	"/>
	<polygon fill="#045981" points="40.4,11.712 34.644,9.442 34.531,9.678 40.277,11.948 	"/>
	<polygon fill="#045981" points="40.277,11.948 40.298,11.957 40.308,11.957 40.328,11.957 40.338,11.957 40.361,11.957 
		40.369,11.957 40.379,11.957 40.4,11.948 40.419,11.939 40.441,11.921 40.451,11.903 40.471,11.885 40.471,11.857 40.48,11.83 
		40.48,11.812 40.471,11.784 40.471,11.775 40.46,11.767 40.451,11.757 40.451,11.749 40.441,11.739 40.419,11.731 40.409,11.721 
		40.4,11.712 	"/>
	<polygon fill="#045981" points="44.545,5.884 44.525,5.884 44.506,5.875 44.494,5.875 44.474,5.875 44.465,5.875 44.454,5.875 
		44.435,5.884 44.423,5.884 44.403,5.893 44.383,5.912 44.364,5.93 44.351,5.947 44.341,5.974 44.341,6.001 44.341,6.019 
		44.341,6.047 44.351,6.056 44.364,6.065 44.364,6.074 44.373,6.092 44.383,6.092 44.394,6.102 44.412,6.11 44.423,6.12 	"/>
	<polygon fill="#045981" points="47.031,6.865 44.545,5.884 44.423,6.12 46.909,7.1 	"/>
	<polygon fill="#045981" points="46.909,7.1 46.928,7.109 46.95,7.109 46.96,7.109 46.97,7.109 46.99,7.109 46.999,7.109 
		47.021,7.109 47.031,7.1 47.052,7.09 47.071,7.072 47.093,7.054 47.103,7.037 47.113,7.009 47.113,6.991 47.113,6.964 
		47.113,6.937 47.103,6.928 47.103,6.918 47.093,6.91 47.083,6.9 47.071,6.891 47.061,6.882 47.041,6.873 47.031,6.865 	"/>
	<polygon fill="#8FCBEF" points="23.714,9.261 23.581,9.206 23.47,9.442 23.602,9.488 	"/>
	<polygon fill="#8FCBEF" points="28.736,11.23 23.714,9.261 23.602,9.488 28.615,11.467 	"/>
	<polygon fill="#8FCBEF" points="28.615,11.467 28.745,11.521 28.858,11.285 28.736,11.23 	"/>
	<polygon fill="#8FCBEF" points="0.948,8.924 0.927,8.924 0.918,8.935 0.906,8.943 0.886,8.953 0.886,8.961 0.877,8.97 0.865,8.98 
		0.865,8.998 0.856,9.015 0.856,9.043 0.856,9.062 0.865,9.087 0.877,9.107 0.897,9.125 0.906,9.143 0.937,9.161 0.948,9.161 
		0.958,9.17 0.978,9.17 0.989,9.17 0.999,9.17 1.019,9.17 1.039,9.161 1.05,9.161 	"/>
	<polygon fill="#8FCBEF" points="25.325,0.063 0.948,8.924 1.05,9.161 25.426,0.309 	"/>
	<polygon fill="#8FCBEF" points="25.426,0.309 25.445,0.3 25.455,0.291 25.468,0.282 25.477,0.272 25.487,0.264 25.497,0.254 
		25.508,0.246 25.508,0.227 25.517,0.208 25.517,0.181 25.517,0.163 25.508,0.137 25.497,0.118 25.477,0.1 25.455,0.082 
		25.436,0.063 25.426,0.063 25.406,0.063 25.397,0.055 25.384,0.055 25.365,0.055 25.354,0.063 25.334,0.063 25.325,0.063 	"/>
	<polygon fill="#8FCBEF" points="5.166,11.648 5.154,11.648 5.134,11.657 5.125,11.667 5.113,11.676 5.103,11.685 5.094,11.694 
		5.094,11.712 5.082,11.721 5.073,11.739 5.073,11.767 5.073,11.794 5.082,11.812 5.094,11.83 5.113,11.849 5.134,11.867 
		5.154,11.885 5.166,11.885 5.184,11.894 5.196,11.894 5.205,11.894 5.225,11.894 5.237,11.894 5.256,11.885 5.277,11.885 	"/>
	<polygon fill="#8FCBEF" points="34.665,0.926 5.166,11.648 5.277,11.885 34.767,1.171 	"/>
	<polygon fill="#8FCBEF" points="34.767,1.171 34.787,1.163 34.797,1.153 34.808,1.145 34.817,1.135 34.827,1.125 34.837,1.117 
		34.849,1.107 34.849,1.09 34.859,1.071 34.859,1.043 34.859,1.027 34.849,0.998 34.837,0.98 34.817,0.962 34.797,0.944 
		34.778,0.926 34.767,0.926 34.745,0.926 34.737,0.917 34.726,0.917 34.707,0.917 34.696,0.926 34.675,0.926 34.665,0.926 	"/>
	<polygon fill="#8FCBEF" points="11.897,13.383 11.888,13.392 11.867,13.401 11.857,13.41 11.847,13.419 11.836,13.428 
		11.827,13.438 11.827,13.446 11.817,13.456 11.817,13.482 11.817,13.501 11.817,13.527 11.827,13.555 11.836,13.574 11.847,13.591 
		11.867,13.609 11.888,13.619 11.907,13.628 11.918,13.628 11.928,13.628 11.948,13.637 11.959,13.628 11.979,13.628 11.99,13.628 
		12.01,13.619 	"/>
	<polygon fill="#8FCBEF" points="41.54,2.624 11.897,13.383 12.01,13.619 41.643,2.86 	"/>
	<polygon fill="#8FCBEF" points="41.643,2.86 41.663,2.851 41.674,2.842 41.683,2.833 41.693,2.823 41.702,2.815 41.715,2.805 
		41.724,2.797 41.724,2.787 41.735,2.76 41.735,2.742 41.735,2.715 41.724,2.688 41.715,2.669 41.693,2.651 41.674,2.632 
		41.653,2.624 41.643,2.615 41.632,2.615 41.612,2.615 41.603,2.615 41.582,2.615 41.572,2.615 41.55,2.615 41.54,2.624 	"/>
	<polygon fill="#8FCBEF" points="1.222,5.084 1.203,5.093 1.192,5.103 1.182,5.111 1.172,5.121 1.162,5.13 1.151,5.139 1.141,5.148 
		1.141,5.167 1.131,5.184 1.131,5.211 1.131,5.23 1.141,5.256 1.151,5.275 1.172,5.293 1.192,5.311 1.212,5.33 1.222,5.33 
		1.243,5.33 1.254,5.339 1.263,5.339 1.284,5.339 1.294,5.33 1.315,5.33 1.324,5.33 	"/>
	<polygon fill="#8FCBEF" points="12.896,0.844 1.222,5.084 1.324,5.33 12.998,1.09 	"/>
	<polygon fill="#8FCBEF" points="12.998,1.09 13.019,1.08 13.029,1.071 13.049,1.062 13.059,1.053 13.07,1.043 13.07,1.035 
		13.079,1.027 13.09,1.009 13.09,0.99 13.09,0.962 13.09,0.944 13.079,0.917 13.07,0.899 13.049,0.881 13.039,0.862 13.008,0.844 
		12.998,0.844 12.988,0.844 12.978,0.835 12.958,0.835 12.948,0.835 12.927,0.844 12.907,0.844 12.896,0.844 	"/>
	<polygon fill="#8FCBEF" points="20.617,14.271 20.608,14.271 20.588,14.282 20.576,14.291 20.567,14.3 20.556,14.309 
		20.546,14.318 20.546,14.327 20.536,14.345 20.536,14.363 20.536,14.391 20.536,14.408 20.546,14.436 20.556,14.454 20.567,14.472 
		20.588,14.49 20.617,14.509 20.628,14.509 20.638,14.509 20.659,14.518 20.668,14.518 20.679,14.518 20.699,14.518 20.709,14.509 
		20.731,14.509 	"/>
	<polygon fill="#8FCBEF" points="45.881,5.093 20.617,14.271 20.731,14.509 45.982,5.33 	"/>
	<polygon fill="#8FCBEF" points="45.982,5.33 46.001,5.33 46.024,5.32 46.033,5.311 46.043,5.302 46.052,5.293 46.052,5.284 
		46.063,5.267 46.063,5.256 46.073,5.239 46.073,5.211 46.073,5.184 46.063,5.167 46.052,5.148 46.043,5.121 46.024,5.103 
		45.992,5.093 45.982,5.093 45.971,5.084 45.952,5.084 45.942,5.084 45.93,5.084 45.91,5.084 45.9,5.084 45.881,5.093 	"/>
	<polygon fill="#8FCBEF" points="36.427,13.146 36.406,13.155 36.396,13.164 36.386,13.164 36.367,13.183 36.356,13.192 
		36.356,13.202 36.346,13.21 36.346,13.219 36.335,13.247 36.335,13.273 36.335,13.292 36.346,13.31 36.356,13.336 36.376,13.355 
		36.396,13.374 36.417,13.383 36.438,13.392 36.447,13.392 36.457,13.392 36.477,13.392 36.489,13.392 36.51,13.392 36.518,13.383 
		36.539,13.383 	"/>
	<polygon fill="#8FCBEF" points="45.81,9.497 36.427,13.146 36.539,13.383 45.93,9.724 	"/>
	<polygon fill="#8FCBEF" points="45.93,9.724 45.942,9.724 45.962,9.714 45.971,9.706 45.982,9.696 45.992,9.688 45.992,9.678 
		46.001,9.661 46.012,9.651 46.012,9.633 46.012,9.606 46.012,9.579 46.001,9.561 45.992,9.542 45.971,9.523 45.952,9.505 
		45.93,9.488 45.921,9.488 45.9,9.488 45.89,9.478 45.881,9.478 45.859,9.478 45.85,9.488 45.829,9.488 45.81,9.497 	"/>
	<polygon fill="#8FCBEF" points="3.464,4.414 3.443,4.403 3.433,4.403 3.413,4.403 3.403,4.395 3.392,4.403 3.372,4.403 
		3.362,4.403 3.341,4.403 3.322,4.421 3.301,4.44 3.29,4.458 3.27,4.477 3.27,4.494 3.26,4.522 3.26,4.549 3.27,4.567 3.27,4.586 
		3.28,4.594 3.29,4.603 3.301,4.612 3.301,4.621 3.322,4.63 3.331,4.639 3.341,4.648 	"/>
	<polygon fill="#8FCBEF" points="8.23,6.292 3.464,4.414 3.341,4.648 8.119,6.528 	"/>
	<polygon fill="#8FCBEF" points="8.119,6.528 8.129,6.528 8.15,6.538 8.159,6.538 8.179,6.538 8.19,6.538 8.21,6.538 8.221,6.528 
		8.23,6.528 8.251,6.51 8.272,6.5 8.292,6.483 8.302,6.455 8.313,6.437 8.322,6.41 8.322,6.392 8.313,6.365 8.302,6.356 
		8.302,6.338 8.292,6.328 8.281,6.319 8.272,6.31 8.261,6.301 8.251,6.301 8.23,6.292 	"/>
	<polygon fill="#8FCBEF" points="13.07,0.917 13.049,0.909 13.039,0.909 13.019,0.909 12.998,0.909 12.988,0.909 12.978,0.909 
		12.958,0.909 12.948,0.917 12.927,0.926 12.907,0.944 12.886,0.962 12.876,0.98 12.865,1.009 12.865,1.027 12.865,1.053 
		12.865,1.071 12.876,1.09 12.886,1.099 12.886,1.107 12.896,1.117 12.907,1.125 12.917,1.135 12.937,1.145 12.948,1.153 	"/>
	<polygon fill="#8FCBEF" points="17.705,2.742 13.07,0.917 12.948,1.153 17.592,2.979 	"/>
	<polygon fill="#8FCBEF" points="17.592,2.979 17.602,2.987 17.613,2.987 17.633,2.987 17.654,2.987 17.663,2.987 17.673,2.987 
		17.694,2.987 17.705,2.979 17.726,2.969 17.744,2.951 17.765,2.932 17.776,2.914 17.785,2.887 17.785,2.86 17.785,2.842 
		17.785,2.815 17.776,2.805 17.776,2.797 17.765,2.787 17.756,2.778 17.744,2.769 17.735,2.76 17.714,2.751 17.705,2.742 	"/>
	<polygon fill="#8FCBEF" points="3.372,8.172 3.362,8.162 3.341,8.162 3.331,8.162 3.31,8.162 3.301,8.162 3.29,8.162 3.27,8.162 
		3.26,8.172 3.239,8.18 3.219,8.198 3.198,8.217 3.189,8.235 3.178,8.262 3.178,8.28 3.178,8.308 3.178,8.335 3.189,8.344 
		3.189,8.353 3.198,8.363 3.208,8.371 3.219,8.38 3.229,8.389 3.25,8.398 3.26,8.407 	"/>
	<polygon fill="#8FCBEF" points="8.903,10.35 3.372,8.172 3.26,8.407 8.781,10.577 	"/>
	<polygon fill="#8FCBEF" points="8.781,10.577 8.802,10.587 8.812,10.587 8.831,10.596 8.842,10.596 8.862,10.596 8.873,10.596 
		8.883,10.587 8.903,10.587 8.923,10.568 8.944,10.559 8.954,10.532 8.974,10.514 8.974,10.496 8.985,10.469 8.985,10.44 
		8.974,10.422 8.974,10.414 8.964,10.395 8.954,10.387 8.954,10.377 8.944,10.369 8.933,10.359 8.913,10.35 8.903,10.35 	"/>
	<polygon fill="#8FCBEF" points="13.09,4.657 13.079,4.648 13.059,4.648 13.049,4.648 13.029,4.639 13.019,4.648 12.998,4.648 
		12.988,4.648 12.978,4.648 12.958,4.667 12.937,4.685 12.917,4.703 12.907,4.721 12.896,4.74 12.886,4.767 12.886,4.793 
		12.896,4.812 12.896,4.83 12.907,4.84 12.917,4.848 12.927,4.858 12.937,4.867 12.948,4.875 12.958,4.884 12.978,4.893 	"/>
	<polygon fill="#8FCBEF" points="18.529,6.801 13.09,4.657 12.978,4.893 18.417,7.037 	"/>
	<polygon fill="#8FCBEF" points="18.417,7.037 18.427,7.037 18.448,7.045 18.468,7.045 18.478,7.045 18.499,7.045 18.509,7.045 
		18.519,7.037 18.529,7.037 18.56,7.019 18.58,7.009 18.59,6.991 18.611,6.964 18.611,6.946 18.621,6.918 18.621,6.9 18.611,6.873 
		18.611,6.865 18.6,6.854 18.59,6.847 18.59,6.836 18.57,6.818 18.56,6.81 18.55,6.81 18.529,6.801 	"/>
	<polygon fill="#8FCBEF" points="22.908,1.062 22.889,1.053 22.869,1.053 22.859,1.053 22.838,1.053 22.828,1.053 22.818,1.053 
		22.798,1.053 22.788,1.062 22.767,1.071 22.747,1.09 22.726,1.107 22.717,1.125 22.706,1.153 22.706,1.171 22.706,1.199 
		22.706,1.217 22.717,1.234 22.726,1.244 22.726,1.252 22.736,1.263 22.747,1.271 22.757,1.281 22.778,1.289 22.788,1.298 	"/>
	<polygon fill="#8FCBEF" points="28.318,3.196 22.908,1.062 22.788,1.298 28.206,3.432 	"/>
	<polygon fill="#8FCBEF" points="28.206,3.432 28.227,3.442 28.237,3.442 28.258,3.442 28.268,3.442 28.288,3.442 28.299,3.442 
		28.308,3.442 28.329,3.432 28.349,3.423 28.37,3.405 28.379,3.387 28.402,3.368 28.41,3.342 28.41,3.323 28.41,3.296 28.41,3.278 
		28.402,3.259 28.389,3.25 28.379,3.241 28.379,3.232 28.359,3.223 28.349,3.213 28.339,3.206 28.318,3.196 	"/>
	<polygon fill="#8FCBEF" points="13.772,8.606 13.763,8.606 13.742,8.599 13.732,8.599 13.71,8.599 13.701,8.599 13.68,8.599 
		13.67,8.606 13.66,8.606 13.639,8.625 13.61,8.635 13.599,8.652 13.59,8.68 13.579,8.698 13.568,8.726 13.568,8.744 13.579,8.771 
		13.59,8.779 13.59,8.789 13.599,8.808 13.61,8.808 13.62,8.825 13.63,8.825 13.639,8.834 13.66,8.843 	"/>
	<polygon fill="#8FCBEF" points="19.069,10.695 13.772,8.606 13.66,8.843 18.958,10.932 	"/>
	<polygon fill="#8FCBEF" points="18.958,10.932 18.968,10.932 18.988,10.94 18.998,10.94 19.018,10.94 19.029,10.94 19.049,10.94 
		19.058,10.94 19.069,10.932 19.089,10.922 19.11,10.903 19.13,10.885 19.141,10.867 19.151,10.84 19.151,10.822 19.151,10.795 
		19.151,10.768 19.141,10.759 19.141,10.75 19.13,10.741 19.12,10.731 19.11,10.722 19.1,10.713 19.079,10.704 19.069,10.695 	"/>
	<polygon fill="#8FCBEF" points="23.593,5.084 23.581,5.084 23.562,5.076 23.541,5.076 23.531,5.076 23.521,5.076 23.5,5.076 
		23.49,5.084 23.479,5.084 23.45,5.093 23.439,5.111 23.42,5.13 23.408,5.148 23.399,5.175 23.388,5.203 23.388,5.221 23.399,5.248 
		23.408,5.256 23.408,5.267 23.42,5.275 23.429,5.293 23.439,5.293 23.45,5.302 23.459,5.311 23.479,5.32 	"/>
	<polygon fill="#8FCBEF" points="28.909,7.182 23.593,5.084 23.479,5.32 28.798,7.418 	"/>
	<polygon fill="#8FCBEF" points="28.798,7.418 28.817,7.418 28.829,7.427 28.848,7.427 28.858,7.427 28.879,7.427 28.888,7.427 
		28.901,7.427 28.909,7.418 28.941,7.409 28.96,7.39 28.972,7.373 28.991,7.345 29.001,7.327 29.001,7.309 29.001,7.281 
		28.991,7.255 28.991,7.245 28.981,7.237 28.972,7.228 28.972,7.218 28.949,7.2 28.941,7.2 28.929,7.191 28.909,7.182 	"/>
	<polygon fill="#8FCBEF" points="33.341,1.461 33.321,1.453 33.309,1.443 33.291,1.443 33.28,1.443 33.258,1.443 33.249,1.443 
		33.239,1.453 33.228,1.453 33.198,1.472 33.177,1.48 33.167,1.506 33.148,1.525 33.137,1.544 33.137,1.571 33.137,1.589 
		33.148,1.616 33.148,1.625 33.156,1.644 33.156,1.653 33.167,1.661 33.177,1.671 33.198,1.679 33.208,1.689 33.228,1.689 	"/>
	<polygon fill="#8FCBEF" points="38.688,3.569 33.341,1.461 33.228,1.689 38.577,3.804 	"/>
	<polygon fill="#8FCBEF" points="38.577,3.804 38.586,3.804 38.606,3.804 38.627,3.813 38.638,3.813 38.658,3.813 38.669,3.804 
		38.678,3.804 38.688,3.804 38.719,3.786 38.74,3.777 38.749,3.759 38.77,3.732 38.77,3.713 38.781,3.686 38.781,3.669 38.77,3.641 
		38.77,3.632 38.759,3.623 38.749,3.604 38.749,3.596 38.73,3.586 38.719,3.586 38.709,3.578 38.688,3.569 	"/>
	<polygon fill="#8FCBEF" points="34.288,5.565 34.268,5.556 34.247,5.556 34.237,5.556 34.227,5.556 34.207,5.556 34.197,5.556 
		34.176,5.556 34.165,5.565 34.145,5.574 34.126,5.593 34.105,5.611 34.094,5.629 34.084,5.656 34.084,5.674 34.084,5.703 
		34.084,5.72 34.094,5.739 34.094,5.747 34.105,5.756 34.114,5.765 34.126,5.775 34.136,5.784 34.155,5.792 34.165,5.802 	"/>
	<polygon fill="#8FCBEF" points="39.137,7.481 34.288,5.565 34.165,5.802 39.025,7.718 	"/>
	<polygon fill="#8FCBEF" points="39.025,7.718 39.044,7.718 39.055,7.726 39.076,7.726 39.087,7.726 39.106,7.726 39.116,7.726 
		39.126,7.718 39.147,7.718 39.167,7.708 39.187,7.69 39.198,7.672 39.219,7.654 39.23,7.626 39.23,7.599 39.23,7.581 39.23,7.554 
		39.219,7.544 39.209,7.535 39.198,7.527 39.198,7.509 39.177,7.509 39.167,7.491 39.158,7.491 39.137,7.481 	"/>
	<polygon fill="#8FCBEF" points="24.693,12.857 24.682,12.847 24.662,12.838 24.652,12.838 24.631,12.838 24.621,12.838 
		24.61,12.838 24.591,12.847 24.581,12.847 24.56,12.865 24.539,12.874 24.519,12.902 24.508,12.92 24.499,12.938 24.499,12.965 
		24.499,12.983 24.499,13.011 24.508,13.02 24.508,13.028 24.519,13.046 24.529,13.057 24.539,13.064 24.55,13.075 24.571,13.083 
		24.581,13.083 	"/>
	<polygon fill="#8FCBEF" points="28.003,14.155 24.693,12.857 24.581,13.083 27.89,14.391 	"/>
	<polygon fill="#8FCBEF" points="27.89,14.391 27.912,14.4 27.921,14.4 27.931,14.4 27.951,14.4 27.961,14.4 27.983,14.4 
		27.992,14.4 28.003,14.391 28.023,14.381 28.044,14.363 28.064,14.345 28.073,14.327 28.085,14.3 28.085,14.282 28.085,14.254 
		28.085,14.227 28.085,14.219 28.073,14.208 28.064,14.201 28.055,14.19 28.044,14.182 28.032,14.172 28.023,14.164 28.003,14.155 	
		"/>
	<polygon fill="#8FCBEF" points="34.451,9.324 34.431,9.324 34.422,9.316 34.399,9.316 34.389,9.316 34.379,9.316 34.359,9.316 
		34.35,9.324 34.34,9.324 34.308,9.333 34.288,9.351 34.279,9.37 34.268,9.396 34.257,9.415 34.247,9.442 34.247,9.46 34.257,9.488 
		34.257,9.497 34.268,9.505 34.279,9.515 34.288,9.523 34.288,9.542 34.308,9.552 34.319,9.552 34.34,9.561 	"/>
	<polygon fill="#8FCBEF" points="40.196,11.594 34.451,9.324 34.34,9.561 40.085,11.83 	"/>
	<polygon fill="#8FCBEF" points="40.085,11.83 40.104,11.83 40.115,11.839 40.134,11.839 40.146,11.839 40.166,11.839 
		40.175,11.839 40.186,11.83 40.205,11.83 40.227,11.821 40.247,11.803 40.266,11.784 40.277,11.767 40.289,11.739 40.289,11.712 
		40.289,11.694 40.289,11.667 40.277,11.657 40.266,11.648 40.266,11.639 40.257,11.622 40.247,11.622 40.227,11.604 40.217,11.604 
		40.196,11.594 	"/>
	<polygon fill="#8FCBEF" points="44.364,5.784 44.341,5.775 44.331,5.765 44.312,5.765 44.302,5.765 44.292,5.765 44.27,5.765 
		44.26,5.775 44.25,5.775 44.221,5.792 44.199,5.802 44.189,5.82 44.179,5.847 44.169,5.866 44.159,5.893 44.159,5.912 
		44.169,5.938 44.169,5.947 44.179,5.965 44.189,5.974 44.199,5.983 44.209,5.992 44.221,6.001 44.23,6.01 44.25,6.01 	"/>
	<polygon fill="#8FCBEF" points="47.113,6.865 44.364,5.784 44.25,6.01 46.999,7.1 	"/>
	<polygon fill="#8FCBEF" points="46.999,7.1 47.012,7.1 47.031,7.109 47.041,7.109 47.061,7.109 47.071,7.109 47.083,7.109 
		47.103,7.1 47.113,7.1 47.132,7.09 47.155,7.072 47.174,7.054 47.184,7.037 47.194,7.009 47.204,6.982 47.204,6.964 47.194,6.937 
		47.184,6.928 47.184,6.918 47.174,6.91 47.164,6.891 47.155,6.891 47.142,6.873 47.132,6.873 47.113,6.865 	"/>
	<polygon fill="#8FCBEF" points="23.634,14.609 23.634,14.609 24.245,14.609 24.844,14.598 25.445,14.59 26.047,14.572 
		26.638,14.554 27.218,14.527 27.799,14.5 28.379,14.463 28.949,14.427 29.52,14.381 30.08,14.336 30.632,14.282 31.18,14.236 
		31.732,14.172 32.271,14.109 32.801,14.045 33.321,13.973 33.841,13.9 34.35,13.828 34.859,13.746 35.358,13.655 35.847,13.565 
		36.324,13.474 36.804,13.383 37.261,13.284 37.721,13.183 38.179,13.075 38.616,12.965 38.83,12.911 39.044,12.857 39.259,12.801 
		39.472,12.738 39.676,12.683 39.88,12.62 40.085,12.557 40.289,12.502 40.49,12.438 40.685,12.375 40.878,12.312 41.073,12.248 
		41.264,12.184 41.449,12.121 41.632,12.057 41.816,11.984 42,11.921 42.173,11.849 42.345,11.784 42.52,11.712 42.681,11.648 
		42.854,11.576 43.019,11.503 43.181,11.431 43.333,11.357 43.495,11.285 43.651,11.212 43.793,11.14 43.945,11.068 44.088,10.986 
		44.23,10.913 44.364,10.832 44.506,10.759 44.636,10.677 44.769,10.596 44.893,10.523 45.014,10.44 45.136,10.359 45.258,10.278 
		45.371,10.197 45.482,10.115 45.585,10.033 45.697,9.95 45.799,9.87 45.9,9.778 45.992,9.696 46.084,9.615 46.176,9.523 
		46.267,9.442 46.347,9.351 46.429,9.261 46.5,9.179 46.572,9.087 46.643,8.998 46.704,8.906 46.767,8.815 46.827,8.726 
		46.888,8.635 46.941,8.543 46.99,8.452 47.031,8.353 47.071,8.262 47.113,8.172 47.142,8.081 47.174,7.98 47.194,7.89 47.226,7.79 
		47.235,7.7 47.255,7.599 47.266,7.5 47.266,7.409 47.266,7.309 46.981,7.309 46.981,7.39 46.97,7.481 46.97,7.573 46.95,7.654 
		46.941,7.745 46.918,7.835 46.898,7.917 46.869,8.007 46.838,8.089 46.807,8.172 46.767,8.262 46.726,8.344 46.675,8.434 
		46.633,8.517 46.583,8.599 46.523,8.689 46.471,8.771 46.399,8.852 46.339,8.943 46.267,9.025 46.195,9.107 46.124,9.188 
		46.043,9.27 45.962,9.351 45.881,9.434 45.787,9.515 45.697,9.597 45.605,9.678 45.502,9.76 45.401,9.841 45.3,9.915 45.187,9.996 
		45.075,10.078 44.964,10.159 44.85,10.232 44.729,10.314 44.608,10.387 44.474,10.469 44.341,10.541 44.209,10.613 44.078,10.695 
		43.945,10.768 43.802,10.84 43.659,10.913 43.507,10.986 43.353,11.058 43.2,11.131 43.048,11.204 42.885,11.276 42.734,11.339 
		42.559,11.413 42.396,11.485 42.234,11.548 42.06,11.622 41.888,11.685 41.702,11.749 41.52,11.821 41.346,11.885 41.154,11.948 
		40.969,12.012 40.788,12.076 40.593,12.14 40.4,12.202 40.196,12.257 39.993,12.321 39.8,12.375 39.595,12.438 39.381,12.493 
		39.177,12.547 38.963,12.611 38.749,12.665 38.535,12.72 38.098,12.828 37.659,12.929 37.202,13.028 36.732,13.129 36.264,13.229 
		35.785,13.318 35.296,13.401 34.808,13.491 34.308,13.574 33.789,13.646 33.28,13.718 32.76,13.791 32.231,13.855 31.692,13.918 
		31.15,13.973 30.61,14.037 30.051,14.081 29.49,14.127 28.929,14.172 28.359,14.208 27.788,14.236 27.208,14.271 26.618,14.3 
		26.038,14.318 25.436,14.336 24.844,14.345 24.245,14.354 23.634,14.354 23.634,14.354 23.634,14.609 	"/>
	<polygon fill="#8FCBEF" points="0,7.309 0,7.309 0.01,7.409 0.01,7.5 0.02,7.599 0.041,7.7 0.051,7.79 0.072,7.89 0.102,7.98 
		0.132,8.081 0.163,8.172 0.204,8.262 0.245,8.363 0.285,8.452 0.336,8.543 0.387,8.635 0.448,8.726 0.499,8.815 0.571,8.906 
		0.632,8.998 0.704,9.087 0.774,9.179 0.846,9.261 0.927,9.351 1.009,9.442 1.1,9.523 1.192,9.615 1.284,9.696 1.376,9.778 
		1.478,9.87 1.578,9.95 1.68,10.033 1.792,10.115 1.906,10.197 2.017,10.278 2.14,10.359 2.262,10.44 2.384,10.523 2.506,10.596 
		2.638,10.677 2.771,10.759 2.913,10.832 3.046,10.913 3.189,10.986 3.331,11.068 3.484,11.14 3.627,11.212 3.78,11.285 
		3.942,11.357 4.095,11.431 4.259,11.503 4.422,11.576 4.583,11.648 4.758,11.712 4.93,11.784 5.103,11.849 5.277,11.921 
		5.46,11.984 5.643,12.057 5.826,12.121 6.01,12.184 6.204,12.248 6.398,12.312 6.591,12.375 6.785,12.438 6.989,12.502 
		7.182,12.557 7.386,12.62 7.6,12.683 7.802,12.738 8.016,12.801 8.23,12.857 8.444,12.911 8.658,12.965 9.097,13.075 9.545,13.183 
		10.014,13.284 10.472,13.383 10.95,13.474 11.429,13.565 11.918,13.655 12.418,13.746 12.927,13.828 13.437,13.9 13.956,13.973 
		14.475,14.045 15.005,14.109 15.545,14.172 16.095,14.236 16.635,14.282 17.195,14.336 17.756,14.381 18.325,14.427 18.896,14.463 
		19.477,14.5 20.058,14.527 20.638,14.554 21.229,14.572 21.83,14.59 22.431,14.598 23.032,14.609 23.634,14.609 23.634,14.354 
		23.032,14.354 22.431,14.345 21.84,14.336 21.239,14.318 20.659,14.3 20.068,14.271 19.488,14.236 18.916,14.208 18.346,14.172 
		17.785,14.127 17.226,14.081 16.666,14.037 16.126,13.973 15.585,13.918 15.046,13.855 14.515,13.791 13.996,13.718 13.477,13.646 
		12.968,13.574 12.468,13.491 11.979,13.401 11.491,13.318 11.012,13.229 10.544,13.129 10.075,13.028 9.617,12.929 9.177,12.828 
		8.74,12.72 8.527,12.665 8.313,12.611 8.099,12.547 7.885,12.493 7.68,12.438 7.477,12.375 7.273,12.321 7.08,12.257 6.876,12.202 
		6.683,12.14 6.489,12.076 6.305,12.012 6.113,11.948 5.928,11.885 5.745,11.821 5.572,11.749 5.388,11.685 5.216,11.622 
		5.042,11.548 4.88,11.485 4.706,11.413 4.544,11.339 4.391,11.276 4.227,11.204 4.075,11.131 3.912,11.058 3.769,10.986 
		3.616,10.913 3.474,10.84 3.331,10.768 3.198,10.695 3.056,10.613 2.934,10.541 2.802,10.469 2.669,10.387 2.548,10.314 
		2.424,10.232 2.312,10.159 2.2,10.078 2.088,9.996 1.977,9.915 1.875,9.841 1.772,9.76 1.671,9.678 1.578,9.597 1.487,9.515 
		1.396,9.434 1.315,9.351 1.233,9.27 1.151,9.188 1.07,9.107 0.999,9.025 0.937,8.943 0.865,8.852 0.805,8.771 0.754,8.689 
		0.693,8.599 0.642,8.517 0.591,8.434 0.55,8.344 0.51,8.262 0.469,8.172 0.438,8.089 0.407,8.007 0.377,7.917 0.357,7.835 
		0.336,7.745 0.316,7.654 0.305,7.573 0.296,7.481 0.296,7.39 0.296,7.309 0.296,7.309 0,7.309 	"/>
	<polygon fill="#8FCBEF" points="23.634,0 23.634,0 23.032,0.009 22.431,0.018 21.83,0.028 21.229,0.045 20.638,0.063 20.058,0.091 
		19.477,0.118 18.896,0.155 18.325,0.19 17.756,0.227 17.195,0.282 16.635,0.327 16.095,0.381 15.545,0.445 15.005,0.5 
		14.475,0.572 13.956,0.635 13.437,0.718 12.927,0.79 12.418,0.871 11.918,0.954 11.429,1.043 10.95,1.135 10.472,1.234 
		10.014,1.335 9.545,1.435 9.097,1.544 8.658,1.653 8.23,1.762 7.802,1.871 7.6,1.934 7.386,1.997 7.182,2.052 6.989,2.116 
		6.785,2.179 6.591,2.243 6.398,2.297 6.204,2.36 6.01,2.433 5.826,2.497 5.643,2.561 5.46,2.624 5.277,2.697 5.103,2.76 
		4.93,2.833 4.758,2.896 4.583,2.969 4.422,3.042 4.259,3.104 4.095,3.187 3.942,3.25 3.78,3.333 3.627,3.405 3.484,3.478 
		3.331,3.549 3.189,3.623 3.046,3.704 2.913,3.777 2.771,3.858 2.638,3.931 2.506,4.013 2.384,4.095 2.262,4.176 2.14,4.249 
		2.017,4.331 1.906,4.414 1.792,4.494 1.68,4.586 1.578,4.667 1.478,4.749 1.376,4.83 1.284,4.921 1.192,5.002 1.1,5.084 
		1.009,5.175 0.927,5.267 0.846,5.348 0.774,5.439 0.704,5.529 0.632,5.62 0.571,5.703 0.499,5.792 0.448,5.884 0.387,5.974 
		0.336,6.074 0.285,6.166 0.245,6.256 0.204,6.346 0.163,6.446 0.132,6.538 0.102,6.627 0.072,6.728 0.051,6.828 0.041,6.918 
		0.02,7.019 0.01,7.109 0.01,7.209 0,7.309 0.296,7.309 0.296,7.218 0.296,7.127 0.305,7.045 0.316,6.955 0.336,6.873 0.357,6.783 
		0.377,6.701 0.407,6.61 0.438,6.528 0.469,6.437 0.51,6.356 0.55,6.265 0.591,6.184 0.642,6.092 0.693,6.01 0.754,5.93 
		0.805,5.847 0.865,5.756 0.937,5.674 0.999,5.593 1.07,5.511 1.151,5.43 1.233,5.348 1.315,5.256 1.396,5.175 1.487,5.093 
		1.578,5.012 1.671,4.939 1.772,4.858 1.875,4.776 1.977,4.694 2.088,4.612 2.2,4.539 2.312,4.458 2.424,4.377 2.548,4.304 
		2.669,4.222 2.802,4.149 2.934,4.077 3.056,3.995 3.198,3.923 3.331,3.85 3.474,3.768 3.616,3.704 3.769,3.623 3.912,3.549 
		4.075,3.478 4.227,3.414 4.391,3.342 4.544,3.27 4.706,3.196 4.88,3.133 5.042,3.06 5.216,2.997 5.388,2.923 5.572,2.86 
		5.745,2.797 5.928,2.733 6.113,2.669 6.305,2.606 6.489,2.542 6.683,2.479 6.876,2.416 7.08,2.352 7.273,2.297 7.477,2.234 
		7.68,2.179 7.885,2.125 8.313,2.007 8.74,1.897 9.177,1.789 9.617,1.679 10.075,1.58 10.544,1.48 11.012,1.39 11.491,1.298 
		11.979,1.208 12.468,1.125 12.968,1.043 13.477,0.972 13.996,0.89 14.515,0.826 15.046,0.754 15.585,0.699 16.126,0.635 
		16.666,0.582 17.226,0.537 17.785,0.49 18.346,0.445 18.916,0.408 19.488,0.372 20.068,0.345 20.659,0.318 21.239,0.3 21.84,0.282 
		22.431,0.272 23.032,0.264 23.634,0.264 23.634,0.264 23.634,0 	"/>
	<polygon fill="#8FCBEF" points="47.266,7.309 47.266,7.209 47.266,7.109 47.255,7.019 47.235,6.918 47.226,6.828 47.194,6.728 
		47.174,6.627 47.142,6.538 47.113,6.446 47.071,6.346 47.031,6.256 46.99,6.166 46.941,6.074 46.888,5.974 46.827,5.884 
		46.767,5.792 46.704,5.703 46.643,5.62 46.572,5.529 46.5,5.439 46.429,5.348 46.347,5.267 46.267,5.175 46.176,5.084 
		46.084,5.002 45.992,4.921 45.9,4.83 45.799,4.749 45.697,4.667 45.585,4.586 45.482,4.494 45.371,4.414 45.258,4.331 
		45.136,4.249 45.014,4.176 44.893,4.095 44.769,4.013 44.636,3.931 44.506,3.858 44.364,3.777 44.23,3.704 44.088,3.623 
		43.945,3.549 43.793,3.478 43.651,3.405 43.495,3.333 43.333,3.25 43.181,3.187 43.019,3.104 42.854,3.042 42.681,2.969 
		42.52,2.896 42.345,2.833 42.173,2.76 42,2.697 41.816,2.624 41.632,2.561 41.449,2.497 41.264,2.433 41.073,2.36 40.878,2.297 
		40.685,2.243 40.49,2.179 40.289,2.116 40.085,2.052 39.88,1.997 39.676,1.934 39.472,1.871 39.044,1.762 38.616,1.653 
		38.179,1.544 37.721,1.435 37.261,1.335 36.804,1.234 36.324,1.135 35.847,1.043 35.358,0.954 34.859,0.871 34.35,0.79 
		33.841,0.718 33.321,0.635 32.801,0.572 32.271,0.5 31.732,0.445 31.18,0.381 30.632,0.327 30.08,0.282 29.52,0.227 28.949,0.19 
		28.379,0.155 27.799,0.118 27.218,0.091 26.638,0.063 26.047,0.045 25.445,0.028 24.844,0.018 24.245,0.009 23.634,0 23.634,0.264 
		24.245,0.264 24.844,0.272 25.436,0.282 26.038,0.3 26.618,0.318 27.208,0.345 27.788,0.372 28.359,0.408 28.929,0.445 29.49,0.49 
		30.051,0.537 30.61,0.582 31.15,0.635 31.692,0.699 32.231,0.754 32.76,0.826 33.28,0.89 33.789,0.972 34.308,1.043 34.808,1.125 
		35.296,1.208 35.785,1.298 36.264,1.39 36.732,1.48 37.202,1.58 37.659,1.679 38.098,1.789 38.535,1.897 38.963,2.007 
		39.381,2.125 39.595,2.179 39.8,2.234 39.993,2.297 40.196,2.352 40.4,2.416 40.593,2.479 40.788,2.542 40.969,2.606 41.154,2.669 
		41.346,2.733 41.531,2.797 41.702,2.86 41.888,2.923 42.06,2.997 42.234,3.06 42.396,3.133 42.559,3.196 42.734,3.27 42.885,3.342 
		43.048,3.414 43.2,3.478 43.353,3.549 43.507,3.623 43.659,3.704 43.802,3.768 43.945,3.85 44.078,3.923 44.209,3.995 
		44.341,4.077 44.474,4.149 44.608,4.222 44.729,4.304 44.85,4.377 44.964,4.458 45.075,4.539 45.187,4.612 45.3,4.694 
		45.401,4.776 45.502,4.858 45.605,4.939 45.697,5.012 45.787,5.093 45.881,5.175 45.962,5.256 46.043,5.348 46.124,5.43 
		46.195,5.511 46.267,5.593 46.339,5.674 46.399,5.756 46.471,5.847 46.523,5.93 46.583,6.01 46.633,6.092 46.675,6.184 
		46.726,6.265 46.767,6.356 46.807,6.437 46.838,6.528 46.869,6.61 46.898,6.701 46.918,6.783 46.941,6.873 46.95,6.955 
		46.97,7.045 46.97,7.127 46.981,7.218 46.981,7.309 	"/>
	<polygon fill="#1F1A17" points="24.245,5.72 27.707,6.746 35.886,3.841 39.696,4.667 37.689,2.088 27.841,2.088 31.954,2.987 	"/>
	<polygon fill="#1F1A17" points="22.818,8.68 19.355,7.654 11.176,10.568 7.355,9.732 9.362,12.321 19.222,12.321 15.107,11.422 	
		"/>
	<polygon fill="#1F1A17" points="8.19,2.979 11.653,1.961 19.833,4.867 23.652,4.031 21.636,6.618 11.786,6.618 15.901,5.72 	"/>
	<polygon fill="#FFFFFF" points="24.529,5.974 27.992,7 36.172,4.095 39.993,4.921 37.974,2.342 28.126,2.342 32.24,3.241 	"/>
	<polygon fill="#FFFFFF" points="23.103,8.935 19.64,7.917 11.461,10.822 7.64,9.996 9.657,12.574 19.507,12.574 15.392,11.676 	"/>
	<polygon fill="#FFFFFF" points="8.474,3.232 11.938,2.216 20.117,5.121 23.938,4.294 21.922,6.873 12.071,6.873 16.187,5.974 	"/>
	<polygon fill="#1F1A17" points="38.811,11.894 35.398,12.902 27.31,10.033 23.531,10.85 25.526,8.299 35.266,8.299 31.192,9.188 	
		"/>
	<polygon fill="#FFFFFF" points="39.076,12.22 35.653,13.229 27.565,10.359 23.796,11.177 25.782,8.625 35.521,8.625 31.455,9.505 	
		"/>
</g>
</svg>
